<svg width="87" height="87" viewBox="0 0 87 87" fill="none" xmlns="http://www.w3.org/2000/svg">
<path d="M58 0H55.1V13.0594H0V15.9594H58V0Z" fill="#99042F"/>
<path d="M69.6 63.8H87V60.9H72.5V30.4593H87V27.5593H69.6V63.8Z" fill="#99042F"/>
<path d="M72.5 13.0594V0H69.6V15.9594H87V13.0594H72.5Z" fill="#99042F"/>
<path d="M69.6 86.9999H72.5V78.2999H87V75.3999H69.6V86.9999Z" fill="#99042F"/>
<path d="M32.8729 84.0999H0V86.9999H33.8271L45.4271 78.2999H55.1V86.9999H58V75.3999H44.4729L32.8729 84.0999Z" fill="#99042F"/>
<path d="M55.1 60.9H41.5729L29.9729 69.6H26.1V72.5H30.9271L42.5271 63.8H58V27.5593H0V30.4593H55.1V60.9Z" fill="#99042F"/>
<path d="M20.3 36.2593C13.0968 36.2593 7.25937 42.0967 7.24066 49.3186C7.24066 55.9793 17.8865 71.5831 19.1026 73.3418L20.3 75.0631L21.4974 73.3418C22.7136 71.5831 33.3594 55.9793 33.3594 49.3186C33.3407 42.0967 27.5032 36.2593 20.3 36.2593ZM20.3 69.8993C16.6516 64.3799 10.1594 53.6593 10.1594 49.2999C10.1594 43.687 14.7058 39.1406 20.3187 39.1406C25.9316 39.1406 30.4781 43.687 30.4781 49.2999C30.4594 53.6593 23.9484 64.3799 20.3 69.8993Z" fill="#99042F"/>
<path d="M20.3 43.5C17.1006 43.5 14.5 46.1006 14.5 49.3C14.5 52.4994 17.1006 55.1 20.3 55.1C23.4994 55.1 26.1 52.4994 26.1 49.3C26.1 46.1006 23.4994 43.5 20.3 43.5ZM20.3 52.2C18.691 52.2 17.4 50.909 17.4 49.3C17.4 47.691 18.691 46.4 20.3 46.4C21.909 46.4 23.2 47.691 23.2 49.3C23.2 50.909 21.909 52.2 20.3 52.2Z" fill="#99042F"/>
<path d="M14.5 69.6001H0V72.5001H14.5V69.6001Z" fill="#99042F"/>
<path d="M82.6593 20.3H79.7593V23.2H82.6593V20.3Z" fill="#99042F"/>
<path d="M76.8594 20.3H73.9594V23.2H76.8594V20.3Z" fill="#99042F"/>
<path d="M71.0594 20.3H68.1594V23.2H71.0594V20.3Z" fill="#99042F"/>
<path d="M65.2594 20.3H62.3594V23.2H65.2594V20.3Z" fill="#99042F"/>
<path d="M65.2594 27.5593H62.3594V30.4593H65.2594V27.5593Z" fill="#99042F"/>
<path d="M65.2594 33.3594H62.3594V36.2594H65.2594V33.3594Z" fill="#99042F"/>
<path d="M65.2594 39.1594H62.3594V42.0594H65.2594V39.1594Z" fill="#99042F"/>
<path d="M65.2594 44.9592H62.3594V47.8592H65.2594V44.9592Z" fill="#99042F"/>
<path d="M65.2594 50.7593H62.3594V53.6593H65.2594V50.7593Z" fill="#99042F"/>
<path d="M65.2594 56.5593H62.3594V59.4593H65.2594V56.5593Z" fill="#99042F"/>
<path d="M65.2594 62.3594H62.3594V65.2594H65.2594V62.3594Z" fill="#99042F"/>
<path d="M65.2594 68.1594H62.3594V71.0594H65.2594V68.1594Z" fill="#99042F"/>
<path d="M59.4593 68.1594H56.5593V71.0594H59.4593V68.1594Z" fill="#99042F"/>
<path d="M53.6593 68.1594H50.7593V71.0594H53.6593V68.1594Z" fill="#99042F"/>
<path d="M47.8594 68.1594H44.9594V71.0594H47.8594V68.1594Z" fill="#99042F"/>
<path d="M41.0174 68.5727L38.9669 70.6233L41.0174 72.6739L43.068 70.6233L41.0174 68.5727Z" fill="#99042F"/>
<path d="M36.6811 72.9228L34.6305 74.9734L36.6811 77.024L38.7317 74.9734L36.6811 72.9228Z" fill="#99042F"/>
<path d="M33.3594 76.8596H30.4594V79.7596H33.3594V76.8596Z" fill="#99042F"/>
<path d="M27.5594 76.8596H24.6594V79.7596H27.5594V76.8596Z" fill="#99042F"/>
<path d="M21.7594 76.8596H18.8594V79.7596H21.7594V76.8596Z" fill="#99042F"/>
</svg>
