<svg width="88" height="90" viewBox="0 0 88 90" fill="none" xmlns="http://www.w3.org/2000/svg">
<g clip-path="url(#clip0)">
<path d="M84.6015 49.5222C84.6015 46.1057 84.1857 42.761 83.3542 39.5422C86.2104 37.4203 87.9458 34.0397 87.9458 30.4433C87.9458 24.1856 82.8299 19.0967 76.5391 19.0967C74.9121 19.0967 73.3032 19.4383 71.839 20.1037C68.6755 17.1366 65.1143 14.7091 61.2819 12.9109V1.85191C61.2819 0.862902 60.4684 0.0537109 59.4742 0.0537109H28.5259C27.5317 0.0537109 26.7182 0.862902 26.7182 1.85191V12.9288C24.7658 13.8459 22.9039 14.9069 21.1142 16.1296C19.0534 12.8749 15.4199 10.807 11.461 10.807C8.42402 10.807 5.54974 11.9938 3.39855 14.1336C1.22928 16.2735 0.0542603 19.1326 0.0542603 22.1536C0.0542603 26.811 2.91046 30.9109 7.08631 32.6371C4.66396 37.8699 3.39855 43.5882 3.39855 49.5222C3.39855 60.3294 7.62862 70.4713 15.2934 78.1137C18.8004 81.6022 22.8316 84.3714 27.2244 86.3674H16.9203C15.9261 86.3674 15.1126 87.1766 15.1126 88.1656C15.1126 89.1546 15.9261 89.9638 16.9203 89.9638H71.0978C72.0921 89.9638 72.9055 89.1546 72.9055 88.1656C72.9055 87.1766 72.0921 86.3674 71.0978 86.3674H60.7938C65.1685 84.3894 69.2178 81.6202 72.7248 78.1137C80.3895 70.4713 84.6015 60.3294 84.6015 49.5222ZM84.3484 30.4433C84.3484 32.4393 83.5711 34.3454 82.2153 35.766C80.5161 31.0907 77.9491 26.739 74.6048 22.9268C75.2375 22.765 75.8883 22.6751 76.5571 22.6751C80.8415 22.6931 84.3484 26.1636 84.3484 30.4433ZM30.3336 3.65011H57.6664V11.4363C55.0272 10.5013 52.2613 9.83593 49.4413 9.45831C49.3509 9.44032 49.2605 9.44033 49.1701 9.42234C48.9894 9.40436 48.8267 9.38638 48.6459 9.3684C48.5013 9.35042 48.3567 9.33243 48.212 9.31445C48.0493 9.29647 47.9047 9.27849 47.742 9.27849C47.5793 9.2605 47.4166 9.24252 47.2359 9.24252C47.0912 9.22454 46.9466 9.22454 46.802 9.20656C46.6212 9.18858 46.4405 9.18858 46.2597 9.1706C46.1331 9.1706 45.9885 9.15261 45.862 9.15261C45.6631 9.15261 45.4643 9.13463 45.2654 9.13463C45.1389 9.13463 45.0304 9.13463 44.9039 9.11665C44.6327 9.11665 44.3435 9.09867 44.0723 9.09867C44.0362 9.09867 44 9.09867 43.9639 9.09867C43.9277 9.09867 43.8916 9.09867 43.8554 9.09867C43.5662 9.09867 43.295 9.09867 43.0058 9.11665C42.8973 9.11665 42.7889 9.11665 42.6804 9.13463C42.4635 9.13463 42.2465 9.15261 42.0296 9.15261C41.9212 9.15261 41.8127 9.1706 41.6861 9.1706C41.4692 9.18858 41.2704 9.18858 41.0534 9.20656C40.945 9.20656 40.8365 9.22454 40.7281 9.22454C40.5111 9.24252 40.2942 9.2605 40.0773 9.27849C39.9869 9.27849 39.8784 9.29647 39.788 9.31445C39.553 9.33243 39.318 9.3684 39.083 9.38638C39.0107 9.40436 38.9203 9.40436 38.848 9.42234C38.5769 9.45831 38.3057 9.49427 38.0526 9.53024C37.9984 9.53024 37.9622 9.54822 37.908 9.54822C37.5826 9.60216 37.2753 9.63813 36.968 9.69207C36.8957 9.71006 36.8414 9.71006 36.7691 9.72804C36.5341 9.764 36.2991 9.81795 36.0641 9.85391C35.9014 9.88988 35.7207 9.92584 35.558 9.9618C35.4314 9.97979 35.323 10.0157 35.1964 10.0337C34.9795 10.0877 34.7626 10.1236 34.5637 10.1776C34.4914 10.1956 34.4372 10.2136 34.3649 10.2315C34.1118 10.2855 33.8587 10.3574 33.5875 10.4293C32.4668 10.717 31.364 11.0587 30.2794 11.4363L30.3336 3.65011ZM3.66971 22.1536C3.66971 20.0857 4.48318 18.1436 5.94744 16.6691C7.4117 15.2126 9.38212 14.4034 11.461 14.4034C14.263 14.4034 16.848 15.9318 18.2219 18.3055C17.2096 19.1326 16.2334 20.0138 15.3115 20.9488C12.7264 23.5202 10.5391 26.3794 8.76749 29.4543C5.73051 28.3214 3.66971 25.4443 3.66971 22.1536ZM44 86.3494C23.6089 86.3494 7.014 69.824 7.014 49.5222C7.014 29.5262 23.1027 13.1986 43.06 12.6951C43.3854 12.6951 43.6927 12.6771 44.0181 12.6771C44.3435 12.6771 44.6508 12.6771 44.9762 12.6951C64.9154 13.1986 80.9861 29.5262 80.9861 49.5222C80.9861 69.8419 64.3912 86.3494 44 86.3494Z" fill="#99042F" stroke="white" stroke-width="0.5" stroke-miterlimit="10"/>
<path d="M44 16.813C25.8866 16.813 11.1537 31.4863 11.1537 49.5223C11.1537 67.5582 25.8866 82.2316 44 82.2316C62.1134 82.2316 76.8464 67.5582 76.8464 49.5223C76.8464 31.4863 62.1134 16.813 44 16.813ZM44 78.6352C27.8751 78.6352 14.7691 65.5802 14.7691 49.5223C14.7691 33.4643 27.8751 20.4094 44 20.4094C60.1249 20.4094 73.2309 33.4643 73.2309 49.5223C73.2309 65.5802 60.1249 78.6352 44 78.6352Z" fill="#99042F" stroke="white" stroke-width="0.5" stroke-miterlimit="10"/>
<path d="M44 29.1844C44.9943 29.1844 45.8078 28.3752 45.8078 27.3862V23.7718C45.8078 22.7828 44.9943 21.9736 44 21.9736C43.0058 21.9736 42.1923 22.7828 42.1923 23.7718V27.3862C42.1923 28.3752 43.0058 29.1844 44 29.1844Z" fill="#99042F" stroke="white" stroke-width="0.5" stroke-miterlimit="10"/>
<path d="M54.2137 31.8998C54.5029 32.0617 54.8102 32.1336 55.1175 32.1336C55.7502 32.1336 56.3468 31.8099 56.6903 31.2345L58.498 28.1056C59.0041 27.2425 58.6968 26.1456 57.8291 25.6421C56.9614 25.1386 55.8587 25.4443 55.3525 26.3074L53.5448 29.4363C53.0567 30.2994 53.346 31.4143 54.2137 31.8998Z" fill="#99042F" stroke="white" stroke-width="0.5" stroke-miterlimit="10"/>
<path d="M63.2704 40.2432C63.5777 40.2432 63.8851 40.1712 64.1743 40.0094L67.3197 38.2112C68.1874 37.7077 68.4767 36.6108 67.9886 35.7477C67.4824 34.8845 66.3797 34.5968 65.512 35.0823L62.3666 36.8805C61.4989 37.384 61.2096 38.4809 61.6977 39.3441C62.0231 39.9195 62.6377 40.2432 63.2704 40.2432Z" fill="#99042F" stroke="white" stroke-width="0.5" stroke-miterlimit="10"/>
<path d="M69.8686 47.7241H66.235C65.2408 47.7241 64.4273 48.5333 64.4273 49.5223C64.4273 50.5113 65.2408 51.3205 66.235 51.3205H69.8686C70.8628 51.3205 71.6763 50.5113 71.6763 49.5223C71.6763 48.5333 70.8628 47.7241 69.8686 47.7241Z" fill="#99042F" stroke="white" stroke-width="0.5" stroke-miterlimit="10"/>
<path d="M67.3016 60.8329L64.1561 59.0347C63.2884 58.5312 62.1857 58.8369 61.6796 59.7C61.1734 60.5631 61.4807 61.66 62.3484 62.1635L65.4939 63.9617C65.7831 64.1236 66.0904 64.1955 66.3977 64.1955C67.0304 64.1955 67.627 63.8718 67.9705 63.2964C68.4766 62.4333 68.1693 61.3364 67.3016 60.8329Z" fill="#99042F" stroke="white" stroke-width="0.5" stroke-miterlimit="10"/>
<path d="M56.6903 67.7921C56.1841 66.929 55.0814 66.6413 54.2137 67.1268C53.346 67.6303 53.0567 68.7272 53.5448 69.5903L55.3525 72.7192C55.696 73.2946 56.2926 73.6183 56.9253 73.6183C57.2326 73.6183 57.5399 73.5464 57.8291 73.3845C58.6968 72.881 58.9861 71.7841 58.498 70.921L56.6903 67.7921Z" fill="#99042F" stroke="white" stroke-width="0.5" stroke-miterlimit="10"/>
<path d="M44 69.8599C43.0058 69.8599 42.1923 70.6691 42.1923 71.6581V75.2725C42.1923 76.2615 43.0058 77.0707 44 77.0707C44.9943 77.0707 45.8078 76.2615 45.8078 75.2725V71.6581C45.8078 70.6691 44.9943 69.8599 44 69.8599Z" fill="#99042F" stroke="white" stroke-width="0.5" stroke-miterlimit="10"/>
<path d="M33.7864 67.1445C32.9187 66.641 31.816 66.9467 31.3098 67.8099L29.5021 70.9387C28.9959 71.8019 29.3032 72.8988 30.1709 73.4022C30.4602 73.5641 30.7675 73.636 31.0748 73.636C31.7075 73.636 32.3041 73.3123 32.6475 72.7369L34.4552 69.6081C34.9433 68.7449 34.6541 67.63 33.7864 67.1445Z" fill="#99042F" stroke="white" stroke-width="0.5" stroke-miterlimit="10"/>
<path d="M23.8439 59.0347L20.6985 60.8329C19.8308 61.3364 19.5415 62.4333 20.0296 63.2964C20.3731 63.8718 20.9696 64.1955 21.6023 64.1955C21.9097 64.1955 22.217 64.1236 22.5062 63.9617L25.6516 62.1635C26.5193 61.66 26.8086 60.5631 26.3205 59.7C25.8143 58.8369 24.6935 58.5312 23.8439 59.0347Z" fill="#99042F" stroke="white" stroke-width="0.5" stroke-miterlimit="10"/>
<path d="M23.5728 49.5223C23.5728 48.5333 22.7593 47.7241 21.765 47.7241H18.1315C17.1373 47.7241 16.3238 48.5333 16.3238 49.5223C16.3238 50.5113 17.1373 51.3205 18.1315 51.3205H21.765C22.7593 51.3205 23.5728 50.5113 23.5728 49.5223Z" fill="#99042F" stroke="white" stroke-width="0.5" stroke-miterlimit="10"/>
<path d="M20.6985 38.2114L23.8439 40.0096C24.1332 40.1714 24.4405 40.2433 24.7478 40.2433C25.3805 40.2433 25.977 39.9197 26.3205 39.3442C26.8267 38.4811 26.5193 37.3842 25.6516 36.8807L22.5062 35.0825C21.6385 34.579 20.5358 34.8847 20.0296 35.7478C19.5415 36.611 19.8308 37.7079 20.6985 38.2114Z" fill="#99042F" stroke="white" stroke-width="0.5" stroke-miterlimit="10"/>
<path d="M31.3098 31.2529C31.6532 31.8283 32.2498 32.152 32.8825 32.152C33.1898 32.152 33.4971 32.08 33.7864 31.9182C34.6541 31.4147 34.9433 30.3178 34.4552 29.4547L32.6475 26.3258C32.1413 25.4627 31.0386 25.1749 30.1709 25.6605C29.3032 26.164 29.014 27.2609 29.502 28.124L31.3098 31.2529Z" fill="#99042F" stroke="white" stroke-width="0.5" stroke-miterlimit="10"/>
<path d="M62.493 52.885C62.6738 51.914 62.023 50.9789 61.0469 50.7991L44.3254 47.7602C44.3073 47.7602 44.3073 47.7602 44.2893 47.7602C44.2531 47.7602 44.2169 47.7422 44.1808 47.7422C44.1627 47.7422 44.1266 47.7422 44.1085 47.7422C44.0723 47.7422 44.0362 47.7422 44.0181 47.7422C43.9819 47.7422 43.9458 47.7422 43.9277 47.7422C43.9096 47.7422 43.8735 47.7422 43.8554 47.7422C43.8192 47.7422 43.7831 47.7422 43.7469 47.7602C43.7289 47.7602 43.7289 47.7602 43.7108 47.7602L26.9893 50.7991C26.0132 50.9789 25.3624 51.914 25.5432 52.885C25.7059 53.7482 26.4651 54.3596 27.3147 54.3596C27.4232 54.3596 27.5317 54.3416 27.6401 54.3236L44.0362 51.3386L60.4322 54.3236C60.5407 54.3416 60.6492 54.3596 60.7576 54.3596C61.5711 54.3596 62.3303 53.7482 62.493 52.885Z" fill="#99042F" stroke="white" stroke-width="0.5" stroke-miterlimit="10"/>
</g>
<defs>
<clipPath id="clip0">
<rect width="88" height="90" fill="white"/>
</clipPath>
</defs>
</svg>
