<svg width="56" height="90" viewBox="0 0 56 90" fill="none" xmlns="http://www.w3.org/2000/svg">
<g clip-path="url(#clip0)">
<path d="M52.8546 52.5677L54.9174 50.1298C56.4391 48.3352 56.2701 45.6264 54.3763 44.1027L52.5841 42.579C52.4995 42.4944 52.4995 42.4944 52.3981 42.3928L54.9174 39.43C55.6445 38.6174 55.8981 37.6354 55.8981 36.6366C55.8981 35.3837 55.357 34.1986 54.3763 33.4029L52.5841 31.8792C52.043 31.4221 51.3329 31.0666 50.6058 30.9819V4.14786C50.6058 1.81151 48.7121 0 46.4633 0H15.3691C13.0358 0 11.2266 1.89616 11.2266 4.14786V23.228C10.4995 22.5 9.51885 21.7889 8.35218 21.3318C6.18793 20.4345 3.31353 21.0609 1.52126 22.7709C-0.000475506 24.2099 -0.372456 26.2754 0.354597 28.2562C0.811119 29.4244 1.25073 30.6941 1.52126 32.0316C2.95846 37.8894 3.22899 44.272 2.33286 49.2156L2.06233 50.6546C0.811119 57.4944 -0.372456 63.8939 1.70725 68.8375C3.49952 73.07 5.84977 75.2201 7.91257 77.1163L8.09856 77.3025C8.45363 77.658 8.63962 78.2844 8.45363 78.8262L6.55991 83.8036L32.9029 90.0169L34.3401 86.4108C34.5261 85.9537 34.8812 85.6828 35.3208 85.5982C36.6734 85.412 38.7362 84.7009 40.985 82.4492C43.7749 79.5711 46.2942 74.4413 47.2749 72.2743C47.63 72.3589 48.0019 72.4605 48.4416 72.4605C49.6928 72.4605 50.8763 71.9187 51.7725 70.9368L53.6662 68.6851C54.3932 67.7878 54.7483 66.7043 54.6469 65.5361C54.5623 64.368 54.0213 63.3691 53.1251 62.5734L52.9391 62.3871L55.0019 59.9492C55.729 59.1366 55.9826 58.1546 55.9826 57.1558C55.9826 55.9029 55.4416 54.7178 54.4609 53.9221L52.8546 52.5677ZM52.6686 46.0835C53.3957 46.7099 53.4802 47.7935 52.8546 48.4199L50.5213 51.298L49.4391 52.5508C49.2532 52.737 49.0841 52.8217 48.8135 53.0079L48.543 53.0926C48.4585 53.0926 48.357 53.0926 48.2725 53.0926C48.0019 53.0926 47.7314 53.0926 47.5454 53.0079C47.3594 52.9233 47.1903 52.8217 47.0889 52.737L45.2966 51.2133C44.5696 50.5869 44.485 49.5034 45.1106 48.7754L48.2556 45.0846C48.4416 45.0846 48.6106 45.0846 48.7966 45C48.8812 45 48.9826 45 49.0672 45C49.3377 44.9153 49.6082 44.8138 49.8788 44.7291C50.1493 44.6445 50.4198 44.4582 50.6058 44.3736C50.6903 44.4582 50.7918 44.4582 50.9609 44.5598L52.6686 46.0835ZM48.7121 33.9278C48.9826 33.7415 49.2532 33.6569 49.5237 33.5722C49.6082 33.5722 49.7097 33.5722 49.7942 33.5722C50.1493 33.5722 50.6058 33.7585 50.8763 33.9278L52.6686 35.4515C53.3957 36.0779 53.4802 37.1614 52.8546 37.7878L49.4391 41.8341L49.3546 41.9187C49.1686 42.105 48.9995 42.1896 48.8135 42.2743C48.6275 42.3589 48.543 42.3589 48.357 42.3589C48.171 42.3589 48.0019 42.3589 47.9005 42.3589C47.63 42.3589 47.3594 42.1727 47.0889 42.0034L45.2966 40.4797C44.5696 39.8533 44.485 38.7698 45.1106 38.0418L48.7121 33.9278C48.6275 34.0293 48.7121 34.0293 48.7121 33.9278ZM13.8474 4.14786C13.8474 3.25056 14.5744 2.62415 15.3691 2.62415H46.4633C47.3594 2.62415 47.985 3.35214 47.985 4.14786V7.02596H13.8304C13.8474 7.02596 13.8474 4.14786 13.8474 4.14786ZM13.8474 9.71783H48.1034V31.3205C48.0189 31.3205 48.0189 31.4052 48.0189 31.4052C47.8329 31.4898 47.6638 31.5914 47.4778 31.6761C47.3932 31.7607 47.2918 31.7607 47.2918 31.8623C47.0213 32.0485 46.8353 32.2178 46.6662 32.4887L43.1662 36.6366C41.6445 38.4312 41.8135 41.14 43.7073 42.6637L45.4995 44.1874C45.5841 44.272 45.5841 44.272 45.6855 44.3736L43.1662 47.2517C41.6445 49.0463 41.8135 51.7551 43.7073 53.2788L45.229 54.5316L43.1662 56.9695C42.5406 57.7822 42.1855 58.6795 42.1855 59.6614H13.8474V9.71783ZM39.0913 80.6377C37.3836 82.3476 35.9464 82.8894 34.9488 83.0756C33.5961 83.2619 32.4295 84.1591 31.8884 85.5135L31.3474 87.0372L10.043 81.9074L10.8546 79.7404C11.3957 78.2167 11.0406 76.5068 9.87392 75.4232L9.68793 75.237C7.70967 73.4424 5.73141 71.5463 4.10822 67.8555C2.31595 63.7077 3.48262 57.5959 4.64928 51.1964L4.91982 49.7573C5.90049 44.5429 5.54542 37.7032 4.10822 31.4898C3.75315 30.0508 3.29663 28.6964 2.75556 27.4436C2.40049 26.36 2.56957 25.4628 3.29663 24.7517C4.2773 23.7698 6.08648 23.3973 7.25315 23.8544C10.7531 25.3781 11.1251 28.7133 11.1251 29.0688V67.9571C11.1251 70.2935 13.0188 72.105 15.2676 72.105H44.299C43.3184 74.3397 41.2556 78.4029 39.0913 80.6377ZM44.5865 64.8928C44.4005 65.079 44.316 65.3499 44.13 65.5192C44.13 65.6038 44.0454 65.6038 44.0454 65.7054C43.9609 65.8916 43.8594 66.0609 43.7749 66.2472C43.7749 66.3318 43.7749 66.3318 43.7749 66.4334C43.6903 66.7043 43.6903 66.8905 43.5889 67.1614C43.5889 67.2461 43.5889 67.246 43.5889 67.3476C43.5889 67.5339 43.5889 67.7032 43.5889 67.974C43.5889 68.0587 43.5889 68.0587 43.5889 68.1603C43.5889 68.4312 43.6734 68.6174 43.6734 68.8883C43.6734 68.8883 43.6734 68.8883 43.6734 68.9729C43.6734 69.1591 43.758 69.3284 43.8594 69.43H15.3691C14.5575 69.43 13.8474 68.702 13.8474 67.9063V62.3194H42.8788C43.0647 62.5903 43.3353 62.8612 43.6058 63.1321L45.1275 64.3849L44.5865 64.8928ZM51.5865 66.8736L49.7097 69.1253C49.1686 69.7517 48.2725 69.9379 47.5454 69.4808C47.4609 69.4808 47.3594 69.3962 47.2749 69.2946L46.8184 68.9391C46.0913 68.3126 46.0068 67.2291 46.6324 66.5011L47.5285 65.4176C47.7145 65.4176 47.8836 65.4176 48.0696 65.4176C48.0696 65.4176 48.0696 65.4176 48.1541 65.4176C48.2387 65.4176 48.3401 65.4176 48.4246 65.4176H48.6106C48.8812 65.4176 49.0672 65.333 49.3377 65.333C49.4222 65.333 49.5237 65.2483 49.5237 65.2483C49.7097 65.2483 49.7942 65.1637 49.8788 65.1637C49.9633 65.1637 50.0647 65.079 50.1493 65.079C50.2338 65.079 50.3353 64.9944 50.4198 64.9944C50.6058 64.9097 50.7749 64.7235 50.9609 64.6388C51.0454 64.6388 51.0454 64.5542 51.1469 64.5542C51.2314 64.4695 51.2314 64.4695 51.3329 64.368L51.5189 64.5542C51.8739 64.8251 52.0599 65.2822 52.1445 65.7224C52.043 66.1625 51.857 66.5181 51.5865 66.8736ZM48.2725 62.912C48.0019 62.912 47.816 62.912 47.5454 62.8273C47.3594 62.7427 47.1903 62.6411 47.0889 62.5564L45.2966 61.0327C44.5696 60.4063 44.485 59.3228 45.1106 58.5948L47.5454 55.7167C47.7314 55.7167 47.9005 55.7167 48.0865 55.7167C48.0865 55.7167 48.0865 55.7167 48.171 55.7167C48.2556 55.7167 48.357 55.7167 48.4416 55.7167C48.5261 55.7167 48.6275 55.7167 48.6275 55.7167C48.8981 55.7167 49.0841 55.6321 49.2532 55.6321C49.3377 55.6321 49.3377 55.6321 49.4391 55.6321C49.5237 55.6321 49.6251 55.5474 49.7097 55.5474C49.7942 55.5474 49.8957 55.4628 49.8957 55.4628C49.9802 55.4628 50.0817 55.3781 50.0817 55.3781C50.3522 55.2935 50.5382 55.1072 50.7073 54.921C50.7918 54.8363 50.7918 54.8363 50.8932 54.7348C50.9778 54.6501 51.0792 54.6501 51.1638 54.5485L52.6855 55.9029C53.4126 56.5293 53.4971 57.6129 52.8715 58.3409L50.5213 61.1174L49.4391 62.3702C49.3546 62.5564 49.1686 62.6411 49.0841 62.7257C49.0841 62.7257 49.0841 62.7257 48.9995 62.8104L48.8135 62.895C48.8135 62.895 48.729 62.895 48.6275 62.9797C48.543 62.9797 48.4416 62.9797 48.357 63.0643" fill="#99042F"/>
<path d="M35.2198 3.96167H26.5966V5.6716H35.2198V3.96167Z" fill="#99042F"/>
<path d="M30.8237 63.0979C29.657 63.0979 28.6594 64.0798 28.6594 65.2649C28.6594 66.4331 29.6401 67.432 30.8237 67.432C31.9903 67.432 32.9879 66.45 32.9879 65.2649C32.9879 64.0798 31.9903 63.0979 30.8237 63.0979Z" fill="#99042F"/>
<path d="M27.459 43.9504L38.5169 35.4008L27.459 26.7495V43.9504Z" fill="#99042F"/>
</g>
<defs>
<clipPath id="clip0">
<rect width="56" height="90" fill="white"/>
</clipPath>
</defs>
</svg>
