<svg width="108" height="31" viewBox="0 0 108 31" fill="none" xmlns="http://www.w3.org/2000/svg">
<g clip-path="url(#clip0)">
<path d="M13.7008 5.94521C14.8227 5.94521 15.7323 4.61433 15.7323 2.9726C15.7323 1.33088 14.8227 0 13.7008 0C12.5788 0 11.6693 1.33088 11.6693 2.9726C11.6693 4.61433 12.5788 5.94521 13.7008 5.94521Z" fill="white"/>
<path d="M12.0472 1.74581C12.0472 1.74581 9.59055 1.98173 9.63779 0.471841C9.63779 0.471841 9.59055 0.094368 8.97637 0.094368C8.3622 0.094368 9.07086 2.31202 9.07086 2.31202V2.9726H12.0945V1.74581H12.0472Z" fill="white"/>
<path d="M12.8504 3.91629C12.8504 3.91629 9.59055 3.49163 9.59055 6.5586C9.59055 6.5586 9.82677 7.26636 8.92914 7.26636C8.0315 7.26636 8.26772 3.91629 8.26772 3.91629L8.22047 2.92542H12.8504V3.91629Z" fill="white"/>
<path d="M8.97638 0.094368C8.97638 0.094368 0 0.283104 0 8.16286C0 8.16286 0.377953 9.29528 1.08661 8.44597C1.79528 7.59665 4.72441 5.04871 9.6378 5.04871" fill="white"/>
<path d="M23.811 5.75647C23.811 5.75647 25.5591 7.4551 27.9213 5.70929L26.8346 0.377473L24.6142 0.424657L23.811 5.75647Z" fill="white"/>
<path d="M18.3307 10.7108L4.20472 17.5053L2.7874 15.1933L17.2441 8.16286L18.3307 10.7108Z" fill="white"/>
<path d="M17.0551 11.1826L29.8583 17.5053L31.0866 15.1461L17.2441 8.16286L17.0551 11.1826Z" fill="white"/>
<path d="M14.126 22.4597C14.126 20.8554 15.4488 19.5342 17.0551 19.5342C18.6614 19.5342 19.9842 20.8554 19.9842 22.4597" fill="white"/>
<path d="M7.1811 3.39726H8.74016C9.25984 3.39726 9.68504 3.82192 9.68504 4.34094V29.8204C9.68504 30.3394 9.25984 30.7641 8.74016 30.7641H7.1811C6.66142 30.7641 6.23622 30.3394 6.23622 29.8204V4.34094C6.23622 3.82192 6.66142 3.39726 7.1811 3.39726Z" fill="white"/>
<path d="M25.0866 18.449H26.6457C27.1653 18.449 27.5905 18.8737 27.5905 19.3927V29.8204C27.5905 30.3394 27.1653 30.7641 26.6457 30.7641H25.0866C24.5669 30.7641 24.1417 30.3394 24.1417 29.8204V19.3927C24.1417 18.8737 24.5669 18.449 25.0866 18.449Z" fill="white"/>
<path d="M26.7874 4.38813H24.9449V21.5632H26.7874V4.38813Z" fill="white"/>
<path d="M16.4882 20.997H17.6693C18.0472 20.997 18.378 21.3272 18.378 21.7047V30.0563C18.378 30.4338 18.0472 30.7641 17.6693 30.7641H16.4882C16.1102 30.7641 15.7795 30.4338 15.7795 30.0563V21.7047C15.7795 21.3272 16.063 20.997 16.4882 20.997Z" fill="white"/>
<path d="M3.2126 14.5327C2.7874 14.7686 2.64567 15.2405 2.83464 15.6651L3.63779 17.175C3.87401 17.5997 4.34646 17.7413 4.77165 17.5525L16.5354 11.4658L12.8031 9.57839L3.2126 14.5327Z" fill="white"/>
<path d="M31.1339 14.9574L20.2205 9.5312L16.5354 11.4658L29.622 18.0244C30.0472 18.2131 30.5669 18.0715 30.7559 17.6469L31.5118 16.137C31.748 15.7123 31.5591 15.1933 31.1339 14.9574Z" fill="white"/>
<path d="M16.4882 7.64384L12.7559 9.57839L16.5354 11.4658L20.2205 9.5312L16.4882 7.64384Z" fill="white"/>
<path d="M107.244 10.3333H105.496C104.457 10.3333 104.315 10.8995 103.984 11.4186L92.4567 29.3957C91.8898 30.1979 92.126 30.9528 92.8346 30.9528H94.5827C95.4803 30.9528 95.7638 30.3866 96.0945 29.8676L107.717 11.7489C108.236 11.0411 108.094 10.3333 107.244 10.3333Z" fill="white"/>
<path d="M107.433 29.3957L100.819 19.1568L95.8583 11.4658C95.5276 10.8995 95.2913 10.3805 94.3464 10.3805H92.7874C92.0787 10.3805 91.8425 11.0411 92.2677 11.796L98.9764 22.1766L103.937 29.9148C104.268 30.481 104.457 31.0472 105.449 31H107.008C107.764 30.9528 108 30.3394 107.433 29.3957Z" fill="white"/>
<path d="M81.4961 31C76.063 31 71.622 26.3288 71.622 20.6195C71.622 14.9102 76.063 10.239 81.4961 10.239C85.2756 10.239 88.7716 12.5982 90.4252 16.1842L90.6614 16.656C90.8976 17.1279 90.6614 17.7412 90.189 17.9772L77.3858 24.4414C76.7716 24.7717 76.6299 25.621 77.1496 26.0928C78.3307 27.1781 79.8425 27.8387 81.5433 27.8387C83.3386 27.8387 84.9921 27.0837 86.2677 25.7626C86.5984 25.3851 87.1653 25.3379 87.5905 25.6682L88.4882 26.3288C88.9606 26.7062 89.0551 27.3668 88.6299 27.8387C86.7401 29.8676 84.189 31 81.4961 31ZM81.4961 13.4003C77.811 13.4003 74.7874 16.656 74.7874 20.6667C74.7874 21.4216 75.5905 21.8935 76.252 21.5632L85.6535 16.8447C86.2677 16.5145 86.4094 15.6651 85.8898 15.1933C84.6614 14.0137 83.1024 13.4003 81.4961 13.4003Z" fill="white"/>
<path d="M60.6614 31C55.2283 31 50.7874 26.3288 50.7874 20.6195C50.7874 14.9102 55.2283 10.239 60.6614 10.239C64.4409 10.239 67.937 12.5982 69.5906 16.1842L69.8268 16.656C70.063 17.1279 69.8268 17.7412 69.3543 17.9772L56.5512 24.4414C55.937 24.7717 55.7953 25.621 56.315 26.0928C57.4961 27.1781 59.0079 27.8387 60.7087 27.8387C62.5039 27.8387 64.1575 27.0837 65.4331 25.7626C65.7638 25.3851 66.3307 25.3379 66.7559 25.6682L67.6535 26.3288C68.126 26.7062 68.2205 27.3668 67.7953 27.8387C65.9055 29.8676 63.3543 31 60.6614 31ZM60.6614 13.4003C56.9764 13.4003 53.9528 16.656 53.9528 20.6667C53.9528 21.4216 54.7559 21.8935 55.4173 21.5632L64.8189 16.8447C65.4331 16.5145 65.5748 15.6651 65.0551 15.1933C63.8268 14.0137 62.315 13.4003 60.6614 13.4003Z" fill="white"/>
<path d="M48.4252 13.9193H38.5039C38.0315 13.9193 37.6535 13.5419 37.6535 13.07V11.6545C37.6535 11.1826 38.0315 10.8052 38.5039 10.8052H48.4252C48.8976 10.8052 49.2756 11.1826 49.2756 11.6545V13.07C49.2756 13.5419 48.8976 13.9193 48.4252 13.9193Z" fill="white"/>
<path d="M44.6929 2.12329C42.5669 4.01065 41.4803 7.07763 41.4803 11.277V30.3394C41.4803 30.5753 41.6693 30.8113 41.9528 30.8113H44.6457C44.8819 30.8113 45.1181 30.6225 45.1181 30.3394V11.277C45.1181 8.25723 45.7795 6.03957 47.0551 4.85997C47.8583 4.10502 48.8504 3.91629 49.3701 3.8691C49.6063 3.8691 49.7953 3.63318 49.7953 3.39726V0.660579C49.7953 0.424658 49.6063 0.188737 49.3228 0.188737C48.4724 0.235921 46.5354 0.471842 44.6929 2.12329Z" fill="white"/>
<path d="M13.7008 5.94521C14.8227 5.94521 15.7323 4.61433 15.7323 2.9726C15.7323 1.33088 14.8227 0 13.7008 0C12.5788 0 11.6693 1.33088 11.6693 2.9726C11.6693 4.61433 12.5788 5.94521 13.7008 5.94521Z" fill="white"/>
<path d="M12.0472 1.74581C12.0472 1.74581 9.59055 1.98173 9.63779 0.471841C9.63779 0.471841 9.59055 0.094368 8.97637 0.094368C8.3622 0.094368 9.07086 2.31202 9.07086 2.31202V2.9726H12.0945V1.74581H12.0472Z" fill="white"/>
<path d="M12.8504 3.91629C12.8504 3.91629 9.59055 3.49163 9.59055 6.5586C9.59055 6.5586 9.82677 7.26636 8.92914 7.26636C8.0315 7.26636 8.26772 3.91629 8.26772 3.91629L8.22047 2.92542H12.8504V3.91629Z" fill="white"/>
<path d="M8.97638 0.094368C8.97638 0.094368 0 0.283104 0 8.16286C0 8.16286 0.377953 9.29528 1.08661 8.44597C1.79528 7.59665 4.72441 5.04871 9.6378 5.04871" fill="white"/>
<path d="M23.811 5.75647C23.811 5.75647 25.5591 7.4551 27.9213 5.70929L26.8346 0.377473L24.6142 0.424657L23.811 5.75647Z" fill="white"/>
<path d="M18.3307 10.7108L4.20472 17.5053L2.7874 15.1933L17.2441 8.16286L18.3307 10.7108Z" fill="white"/>
<path d="M17.0551 11.1826L29.8583 17.5053L31.0866 15.1461L17.2441 8.16286L17.0551 11.1826Z" fill="white"/>
<path d="M14.126 22.4597C14.126 20.8554 15.4488 19.5342 17.0551 19.5342C18.6614 19.5342 19.9842 20.8554 19.9842 22.4597" fill="white"/>
<path d="M7.1811 3.39726H8.74016C9.25984 3.39726 9.68504 3.82192 9.68504 4.34094V29.8204C9.68504 30.3394 9.25984 30.7641 8.74016 30.7641H7.1811C6.66142 30.7641 6.23622 30.3394 6.23622 29.8204V4.34094C6.23622 3.82192 6.66142 3.39726 7.1811 3.39726Z" fill="white"/>
<path d="M25.0866 18.449H26.6457C27.1653 18.449 27.5905 18.8737 27.5905 19.3927V29.8204C27.5905 30.3394 27.1653 30.7641 26.6457 30.7641H25.0866C24.5669 30.7641 24.1417 30.3394 24.1417 29.8204V19.3927C24.1417 18.8737 24.5669 18.449 25.0866 18.449Z" fill="white"/>
<path d="M26.7874 4.38813H24.9449V21.5632H26.7874V4.38813Z" fill="white"/>
<path d="M16.4882 20.997H17.6693C18.0472 20.997 18.378 21.3272 18.378 21.7047V30.0563C18.378 30.4338 18.0472 30.7641 17.6693 30.7641H16.4882C16.1102 30.7641 15.7795 30.4338 15.7795 30.0563V21.7047C15.7795 21.3272 16.063 20.997 16.4882 20.997Z" fill="white"/>
<path d="M3.2126 14.5327C2.7874 14.7686 2.64567 15.2405 2.83464 15.6651L3.63779 17.175C3.87401 17.5997 4.34646 17.7413 4.77165 17.5525L16.5354 11.4658L12.8031 9.57839L3.2126 14.5327Z" fill="white"/>
<path d="M31.1339 14.9574L20.2205 9.5312L16.5354 11.4658L29.622 18.0244C30.0472 18.2131 30.5669 18.0715 30.7559 17.6469L31.5118 16.137C31.748 15.7123 31.5591 15.1933 31.1339 14.9574Z" fill="white"/>
<path d="M16.4882 7.64384L12.7559 9.57839L16.5354 11.4658L20.2205 9.5312L16.4882 7.64384Z" fill="white"/>
<path d="M107.244 10.3333H105.496C104.457 10.3333 104.315 10.8995 103.984 11.4186L92.4567 29.3957C91.8898 30.1979 92.126 30.9528 92.8346 30.9528H94.5827C95.4803 30.9528 95.7638 30.3866 96.0945 29.8676L107.717 11.7489C108.236 11.0411 108.094 10.3333 107.244 10.3333Z" fill="white"/>
<path d="M107.433 29.3957L100.819 19.1568L95.8583 11.4658C95.5276 10.8995 95.2913 10.3805 94.3464 10.3805H92.7874C92.0787 10.3805 91.8425 11.0411 92.2677 11.796L98.9764 22.1766L103.937 29.9148C104.268 30.481 104.457 31.0472 105.449 31H107.008C107.764 30.9528 108 30.3394 107.433 29.3957Z" fill="white"/>
<path d="M81.4961 31C76.063 31 71.622 26.3288 71.622 20.6195C71.622 14.9102 76.063 10.239 81.4961 10.239C85.2756 10.239 88.7716 12.5982 90.4252 16.1842L90.6614 16.656C90.8976 17.1279 90.6614 17.7412 90.189 17.9772L77.3858 24.4414C76.7716 24.7717 76.6299 25.621 77.1496 26.0928C78.3307 27.1781 79.8425 27.8387 81.5433 27.8387C83.3386 27.8387 84.9921 27.0837 86.2677 25.7626C86.5984 25.3851 87.1653 25.3379 87.5905 25.6682L88.4882 26.3288C88.9606 26.7062 89.0551 27.3668 88.6299 27.8387C86.7401 29.8676 84.189 31 81.4961 31ZM81.4961 13.4003C77.811 13.4003 74.7874 16.656 74.7874 20.6667C74.7874 21.4216 75.5905 21.8935 76.252 21.5632L85.6535 16.8447C86.2677 16.5145 86.4094 15.6651 85.8898 15.1933C84.6614 14.0137 83.1024 13.4003 81.4961 13.4003Z" fill="white"/>
<path d="M60.6614 31C55.2283 31 50.7874 26.3288 50.7874 20.6195C50.7874 14.9102 55.2283 10.239 60.6614 10.239C64.4409 10.239 67.937 12.5982 69.5906 16.1842L69.8268 16.656C70.063 17.1279 69.8268 17.7412 69.3543 17.9772L56.5512 24.4414C55.937 24.7717 55.7953 25.621 56.315 26.0928C57.4961 27.1781 59.0079 27.8387 60.7087 27.8387C62.5039 27.8387 64.1575 27.0837 65.4331 25.7626C65.7638 25.3851 66.3307 25.3379 66.7559 25.6682L67.6535 26.3288C68.126 26.7062 68.2205 27.3668 67.7953 27.8387C65.9055 29.8676 63.3543 31 60.6614 31ZM60.6614 13.4003C56.9764 13.4003 53.9528 16.656 53.9528 20.6667C53.9528 21.4216 54.7559 21.8935 55.4173 21.5632L64.8189 16.8447C65.4331 16.5145 65.5748 15.6651 65.0551 15.1933C63.8268 14.0137 62.315 13.4003 60.6614 13.4003Z" fill="white"/>
<path d="M48.4252 13.9193H38.5039C38.0315 13.9193 37.6535 13.5419 37.6535 13.07V11.6545C37.6535 11.1826 38.0315 10.8052 38.5039 10.8052H48.4252C48.8976 10.8052 49.2756 11.1826 49.2756 11.6545V13.07C49.2756 13.5419 48.8976 13.9193 48.4252 13.9193Z" fill="white"/>
<path d="M44.6929 2.12329C42.5669 4.01065 41.4803 7.07763 41.4803 11.277V30.3394C41.4803 30.5753 41.6693 30.8113 41.9528 30.8113H44.6457C44.8819 30.8113 45.1181 30.6225 45.1181 30.3394V11.277C45.1181 8.25723 45.7795 6.03957 47.0551 4.85997C47.8583 4.10502 48.8504 3.91629 49.3701 3.8691C49.6063 3.8691 49.7953 3.63318 49.7953 3.39726V0.660579C49.7953 0.424658 49.6063 0.188737 49.3228 0.188737C48.4724 0.235921 46.5354 0.471842 44.6929 2.12329Z" fill="white"/>
</g>
<defs>
<clipPath id="clip0">
<rect width="108" height="31" fill="white"/>
</clipPath>
</defs>
</svg>
