<svg id="Layer_1" data-name="Layer 1" width="512" xmlns="http://www.w3.org/2000/svg" viewBox="0 0 512 181"><defs><style>.cls-1{fill:#b2144d;}</style></defs><title>Artboard 1</title><path class="cls-1" d="M94.92,105.23A12.57,12.57,0,0,0,82.35,117.8h7v32.77a2.93,2.93,0,0,0,2.93,2.93h5.16a2.93,2.93,0,0,0,2.92-2.93V117.8h7.12A12.57,12.57,0,0,0,94.92,105.23Z"/><path class="cls-1" d="M155.46,85.64l-18.74-9.37v-28a18.35,18.35,0,0,0,4.81-2.6L137,22.8l-9.51.2-3.56,22.91a12.65,12.65,0,0,0,4.82,2.6V72.28L108.59,62.2,92.48,54.14l-16,8.32-13.42,7v-22c.82-6.42,5.43-8.53,9.12-9.17,1.22,4.94,4.46,8.49,8.29,8.49,4.87,0,8.81-5.72,8.81-12.78s-3.94-12.77-8.81-12.77c-3.57,0-6.65,3.09-8,7.52-2.58.06-9.6-.26-9.38-5.55,0,0-.28-1.58-2.88-1.58,0,0-38.58.72-38.58,34.64,0,0,1.68,4.9,4.75,1.2C28.68,54.7,36.2,48,48.51,44.67V77.06l-13,6.76a3.64,3.64,0,0,0-1.91,2.72l0,0,0,0A3.65,3.65,0,0,0,34,88.74l3.37,6.47a3.64,3.64,0,0,0,4.92,1.55l6.23-3.25v56a4,4,0,0,0,4,4h6.68a4,4,0,0,0,4-4V85.91l15.77-8.23L93.2,70.81l35.56,17.78v12.14a4,4,0,0,0-3.31,3.89v44.92a4,4,0,0,0,4,4h6.68a4,4,0,0,0,3.95-4V104.62a4,4,0,0,0-3.31-3.89V92.58l12.21,6.1a3.65,3.65,0,0,0,4.89-1.63l3.27-6.52A3.65,3.65,0,0,0,155.46,85.64Z"/><path class="cls-1" d="M231.39,27.13c-9,.92-16.68,4.63-22.33,10.86-8.15,9-10.51,21.1-11.07,29.54H186.57a2.19,2.19,0,0,0-2.19,2.19V83.07a2.19,2.19,0,0,0,2.19,2.19H198v64.26a4.05,4.05,0,0,0,4.05,4.06h10.23a4.05,4.05,0,0,0,4.05-4.06V85.26h15.86a2.19,2.19,0,0,0,2.19-2.19V69.72a2.19,2.19,0,0,0-2.19-2.19H216.41c.54-5.75,2.18-12.79,6.26-17.25a15.37,15.37,0,0,1,9.71-4.81,4.06,4.06,0,0,0,3.53-4V31.17A4.09,4.09,0,0,0,231.39,27.13Z"/><path class="cls-1" d="M464.37,111.64l24.22-37.72c2.08-3,3.15-6.7-1.54-6.7h-9c-4.49,0-5,2.37-6.44,4.73L455.26,97.46,438.91,72c-1.44-2.36-2-4.74-6.44-4.73h-9c-3.05,0-4,3.23-1.54,6.7l24.22,37.72L422,149.25c-2.48,3.47-1.51,6.71,1.54,6.7h9c3.86,0,5-2.37,6.44-4.74l16.28-25.39,16.29,25.39c1.43,2.37,2.15,4.88,6.44,4.74h9c3,0,4-3.23,1.54-6.7Z"/><path class="cls-1" d="M375,156.13c-23.34,0-42.32-20-42.32-44.61s19-44.61,42.32-44.61c16.32,0,31.36,10.06,38.31,25.62l.92,2.06a4.36,4.36,0,0,1-2,5.67l-55,27.78a4.37,4.37,0,0,0-1,7.08,27.33,27.33,0,0,0,39.1-1.39,4.31,4.31,0,0,1,5.7-.48l3.83,2.8a4.39,4.39,0,0,1,.64,6.49A41,41,0,0,1,375,156.13Zm0-75.78c-15.92,0-28.88,14-28.88,31.17v.07a4.35,4.35,0,0,0,6.33,3.78L392.75,95a4.37,4.37,0,0,0,1-7.1A27.76,27.76,0,0,0,375,80.35Z"/><path class="cls-1" d="M285.47,156.13c-23.34,0-42.32-20-42.32-44.61s19-44.61,42.32-44.61c16.32,0,31.36,10.06,38.31,25.62l.92,2.06a4.36,4.36,0,0,1-2,5.67l-55,27.78a4.37,4.37,0,0,0-1,7.08,27.33,27.33,0,0,0,39.1-1.39,4.31,4.31,0,0,1,5.7-.48l3.83,2.8a4.38,4.38,0,0,1,.63,6.49A41,41,0,0,1,285.47,156.13Zm0-75.78c-15.93,0-28.88,14-28.88,31.17v.07a4.35,4.35,0,0,0,6.33,3.78L303.27,95a4.37,4.37,0,0,0,1-7.1A27.78,27.78,0,0,0,285.47,80.35Z"/></svg>
