<svg width="93" height="79" viewBox="0 0 93 79" fill="none" xmlns="http://www.w3.org/2000/svg">
<g clip-path="url(#clip0)">
<path d="M87.604 0.0571289H5.4149C2.44238 0.0571289 0.0567932 2.45164 0.0567932 5.43529V34.1315C0.0567932 37.0961 2.46131 39.5096 5.4149 39.5096H42.9405C42.9405 44.4697 38.9456 48.4795 34.0041 48.4795H32.2243V46.6932C32.2243 45.705 31.4291 44.9068 30.4446 44.9068H16.1311C15.1466 44.9068 14.3514 45.705 14.3514 46.6932V77.1567C14.3514 78.1449 15.1466 78.9431 16.1311 78.9431H30.4257C31.4102 78.9431 32.2054 78.1449 32.2054 77.1567V76.4156C36.0299 78.0689 40.1574 78.9431 44.3227 78.9431H59.0149C61.9684 78.9431 64.3729 76.5296 64.3729 73.565C64.3729 72.6338 64.1268 71.7216 63.6535 70.9234C66.1337 69.3651 66.91 66.0773 65.3575 63.5688C65.1871 63.2837 64.9788 63.0367 64.7705 62.7896C65.6604 61.8014 66.1527 60.5281 66.1716 59.1979C66.1716 58.2667 65.9255 57.3545 65.4521 56.5563C67.9513 54.9599 68.6897 51.6342 67.0993 49.1257C66.1148 47.5864 64.4297 46.6362 62.5932 46.6362H53.6567V39.4716H69.731V48.4415C69.731 49.1637 70.1665 49.8288 70.8481 50.0949C71.0564 50.1899 71.2836 50.2469 71.5297 50.2469C72.003 50.2469 72.4574 50.0569 72.7982 49.7338L82.9843 39.4906H87.604C90.5576 39.4906 92.9621 37.0771 92.9621 34.1125V5.41628C92.9432 2.45164 90.5576 0.0571289 87.604 0.0571289ZM28.627 75.3703H17.9108V48.4795H28.627V75.3703ZM62.5743 50.2659C63.5588 50.2659 64.354 51.0641 64.354 52.0523C64.354 53.0405 63.5588 53.8387 62.5743 53.8387H57.2162C56.2317 53.8387 55.4365 54.6369 55.4365 55.6251C55.4365 56.6133 56.2317 57.4115 57.2162 57.4115H60.7946C61.7791 57.4115 62.5743 58.2096 62.5743 59.1979C62.5743 60.1861 61.7791 60.9842 60.7946 60.9842H57.2162C56.2317 60.9842 55.4365 61.7824 55.4365 62.7706C55.4365 63.7588 56.2317 64.557 57.2162 64.557H60.7946C61.7791 64.557 62.5743 65.3552 62.5743 66.3434C62.5743 67.3316 61.7791 68.1298 60.7946 68.1298H57.2162C56.2317 68.1298 55.4365 68.928 55.4365 69.9162C55.4365 70.9044 56.2317 71.7025 57.2162 71.7025H58.9959C59.9804 71.7025 60.7756 72.5007 60.7756 73.4889C60.7756 74.4771 59.9804 75.2753 58.9959 75.2753H44.3037C40.1574 75.2753 36.0678 74.3061 32.3569 72.4627L32.2054 72.3677V52.0523H33.9851C40.8958 52.0523 46.4811 46.4271 46.5 39.4906V35.9178H48.2797C49.2642 35.9178 50.0594 36.716 50.0594 37.7042V48.4605C50.0594 49.4488 50.8546 50.2469 51.8392 50.2469H62.5743V50.2659ZM89.3837 34.1315C89.3837 35.1197 88.5885 35.9178 87.604 35.9178H82.2459C81.7726 35.9178 81.3182 36.1079 80.9774 36.431L73.3094 44.1466V37.7042C73.3094 36.716 72.5142 35.9178 71.5297 35.9178H53.3349C52.5776 33.7704 50.5517 32.3451 48.2986 32.3261H44.7203C43.7357 32.3261 42.9405 33.1242 42.9405 34.1125V35.8988H5.4149C4.43037 35.8988 3.63517 35.1007 3.63517 34.1125V5.41628C3.63517 4.42807 4.43037 3.6299 5.4149 3.6299H87.604C88.5885 3.6299 89.3837 4.42807 89.3837 5.41628V34.1315Z" fill="#99042F" stroke="white" stroke-width="0.5" stroke-miterlimit="10"/>
<path d="M23.2689 66.4004C22.2844 66.4004 21.4892 67.1986 21.4892 68.1868V69.9732C21.4892 70.9614 22.2844 71.7595 23.2689 71.7595C24.2534 71.7595 25.0486 70.9614 25.0486 69.9732V68.1868C25.0676 67.1986 24.2534 66.4004 23.2689 66.4004Z" fill="#99042F" stroke="white" stroke-width="0.5" stroke-miterlimit="10"/>
<path d="M20.5615 9.86328L23.3068 15.4505L29.4412 16.3437L24.9919 20.6956L26.0332 26.8339L20.5615 23.9263L15.0709 26.8339L16.1122 20.6956L11.6629 16.3437L17.8162 15.4505L20.5615 9.86328Z" fill="#99042F" stroke="white" stroke-width="0.5" stroke-miterlimit="10"/>
<path d="M45.7805 9.86328L48.5258 15.4505L54.6602 16.3437L50.2298 20.6956L51.2712 26.8339L45.7805 23.9263L40.2899 26.8339L41.3502 20.6956L36.9008 16.3437L43.0352 15.4505L45.7805 9.86328Z" fill="#99042F" stroke="white" stroke-width="0.5" stroke-miterlimit="10"/>
<path d="M71.0185 9.86328L73.7638 15.4505L79.8982 16.3437L75.4678 20.6956L76.5092 26.8339L71.0185 23.9263L65.5279 26.8339L66.5692 20.6956L62.1388 16.3437L68.2732 15.4505L71.0185 9.86328Z" fill="#99042F" stroke="white" stroke-width="0.5" stroke-miterlimit="10"/>
</g>
<defs>
<clipPath id="clip0">
<rect width="93" height="79" fill="white"/>
</clipPath>
</defs>
</svg>
