<svg width="129" height="72" viewBox="0 0 129 72" fill="none" xmlns="http://www.w3.org/2000/svg">
<g clip-path="url(#clip0)">
<path d="M25.3816 42.2022C17.8198 42.2022 11.6681 36.1076 11.6681 28.6159C11.6681 21.1242 17.8198 15.0295 25.3816 15.0295C32.9434 15.0295 39.0951 21.1242 39.0951 28.6159C39.0951 36.1076 32.9434 42.2022 25.3816 42.2022ZM25.3816 17.2248C19.044 17.2248 13.8839 22.337 13.8839 28.6159C13.8839 34.8948 19.044 40.0069 25.3816 40.0069C31.7193 40.0069 36.8793 34.8948 36.8793 28.6159C36.8793 22.337 31.7193 17.2248 25.3816 17.2248Z" fill="#99042F"/>
<path d="M40.0713 24.5628C40.0713 24.8084 10.6764 24.5628 10.6764 24.5628C10.6764 16.5184 17.262 9.9939 25.3816 9.9939C33.5013 9.9939 39.8389 16.5338 40.0713 24.5628Z" fill="white"/>
<path d="M32.3546 25.791C30.3402 25.791 27.9539 25.791 25.2112 25.7757C21.3683 25.7603 17.6494 25.7296 15.2011 25.7143C13.8375 25.6989 12.7063 25.6989 11.9161 25.6836C10.382 25.6682 10.382 25.6682 10.1341 25.5301L9.57623 25.2077V24.5629C9.57623 15.9198 16.6732 8.90405 25.3816 8.90405C33.9971 8.90405 40.9391 15.7663 41.187 24.5322L41.2025 25.177L40.6447 25.5147C40.3038 25.7143 40.2418 25.7603 35.3142 25.7757C34.4465 25.7757 33.4548 25.791 32.3546 25.791ZM38.9712 24.5936C38.9712 24.5936 38.9712 24.609 38.9712 24.5936C38.9712 24.609 38.9712 24.5936 38.9712 24.5936ZM11.8386 23.4729C16.6112 23.519 34.431 23.6264 38.9092 23.5343C38.1964 16.4878 32.4321 11.0994 25.3971 11.0994C18.2537 11.1147 12.3964 16.5646 11.8386 23.4729Z" fill="#99042F"/>
<path d="M49.1517 65.0304C49.1672 65.4296 1.10016 65.0304 1.10016 65.0304C1.10016 51.8893 11.854 41.2351 25.1182 41.2351C38.3823 41.2351 48.7643 51.9046 49.1517 65.0304Z" fill="white"/>
<path d="M36.5539 66.3198C33.2688 66.3198 29.364 66.3045 24.8858 66.2891C18.6256 66.2584 12.5359 66.2277 8.52252 66.197C6.29117 66.1817 4.44721 66.1663 3.14559 66.151L1.64252 66.1356C0.852252 66.1356 0.821261 66.1356 0.573333 65.9821L0 65.6751V65.0303C0 51.3058 11.2807 40.1296 25.1337 40.1296C38.8162 40.1296 49.8645 51.0601 50.2674 64.9996L50.2829 65.6444L49.725 65.9821C49.3686 66.197 49.2292 66.2738 41.373 66.3045C39.9474 66.3198 38.3359 66.3198 36.5539 66.3198ZM2.24685 63.9403C9.00288 64.0017 41.8843 64.232 47.9896 64.0171C47.1218 51.7663 37.2667 42.325 25.1337 42.325C12.8768 42.3403 2.82018 51.9352 2.24685 63.9403Z" fill="#99042F"/>
<path d="M14.7672 44.1672H12.5358V64.3702H14.7672V44.1672Z" fill="#99042F"/>
<path d="M37.747 44.1672H35.5156V64.3702H37.747V44.1672Z" fill="#99042F"/>
<path d="M35.6242 53.2249H13.636V55.4355H35.6242V53.2249Z" fill="#99042F"/>
<path d="M104.099 42.2022C96.537 42.2022 90.3853 36.1076 90.3853 28.6159C90.3853 21.1242 96.537 15.0295 104.099 15.0295C111.661 15.0295 117.812 21.1242 117.812 28.6159C117.812 36.1076 111.661 42.2022 104.099 42.2022ZM104.099 17.2248C97.7611 17.2248 92.6011 22.337 92.6011 28.6159C92.6011 34.8948 97.7611 40.0069 104.099 40.0069C110.436 40.0069 115.596 34.8948 115.596 28.6159C115.596 22.337 110.436 17.2248 104.099 17.2248Z" fill="#99042F"/>
<path d="M118.788 24.5628C118.788 24.8084 89.3935 24.5628 89.3935 24.5628C89.3935 16.5184 95.9791 9.9939 104.099 9.9939C112.218 10.0092 118.556 16.5338 118.788 24.5628Z" fill="white"/>
<path d="M111.072 25.791C109.057 25.791 106.671 25.791 103.928 25.7757C100.085 25.7603 96.3665 25.7296 93.9182 25.7143C92.5546 25.6989 91.4234 25.6989 90.6332 25.6836C89.0991 25.6682 89.0991 25.6682 88.8512 25.5301L88.2933 25.2077V24.5629C88.2933 15.9198 95.3903 8.90405 104.099 8.90405C112.714 8.90405 119.656 15.7663 119.904 24.5322L119.92 25.177L119.362 25.5147C119.021 25.7143 118.959 25.7603 114.031 25.7757C113.164 25.7757 112.172 25.791 111.072 25.791ZM117.688 24.5936C117.688 24.5936 117.688 24.609 117.688 24.5936C117.688 24.609 117.688 24.5936 117.688 24.5936ZM90.5557 23.4729C95.3283 23.519 113.148 23.6264 117.626 23.5343C116.913 16.4878 111.149 11.0994 104.114 11.0994C96.9708 11.1147 91.1135 16.5646 90.5557 23.4729Z" fill="#99042F"/>
<path d="M127.869 65.0302C127.884 65.4293 79.8173 65.0302 79.8173 65.0302C79.8173 51.889 90.5711 41.2349 103.835 41.2349C117.099 41.2349 127.481 51.9044 127.869 65.0302Z" fill="white"/>
<path d="M115.271 66.3198C111.986 66.3198 108.081 66.3045 103.603 66.2891C97.3427 66.2584 91.253 66.2277 87.2396 66.197C85.0083 66.1816 83.1643 66.1663 81.8627 66.1509L80.3596 66.1356C79.5694 66.1356 79.5384 66.1356 79.2904 65.9821L78.7326 65.6597V65.0149C78.7326 51.2904 90.0133 40.1143 103.866 40.1143C117.549 40.1143 128.597 51.0447 129 64.9842L129.016 65.629L128.458 65.9667C128.101 66.1816 127.962 66.2584 120.106 66.2891C118.665 66.3198 117.053 66.3198 115.271 66.3198ZM80.964 63.9403C87.72 64.0017 120.601 64.232 126.707 64.017C125.839 51.7663 115.984 42.3249 103.851 42.3249C91.5939 42.3403 81.5373 51.9352 80.964 63.9403Z" fill="#99042F"/>
<path d="M93.4843 44.1672H91.2529V64.3702H93.4843V44.1672Z" fill="#99042F"/>
<path d="M116.464 44.1672H114.233V64.3702H116.464V44.1672Z" fill="#99042F"/>
<path d="M114.341 53.2249H92.3531V55.4355H114.341V53.2249Z" fill="#99042F"/>
<path d="M64.6782 41.757C55.195 41.757 47.4782 34.1118 47.4782 24.7165C47.4782 15.3212 55.195 7.67603 64.6782 7.67603C74.1614 7.67603 81.8782 15.3212 81.8782 24.7165C81.8782 34.1118 74.1614 41.757 64.6782 41.757ZM64.6782 10.4394C56.729 10.4394 50.2674 16.8411 50.2674 24.7165C50.2674 32.592 56.729 38.9937 64.6782 38.9937C72.6274 38.9937 79.089 32.592 79.089 24.7165C79.089 16.8411 72.6274 10.4394 64.6782 10.4394Z" fill="#99042F"/>
<path d="M83.1024 19.6503C83.1179 19.9573 46.2386 19.6503 46.2386 19.6503C46.2386 9.56411 54.4977 1.38159 64.6782 1.38159C74.8588 1.38159 82.808 9.56411 83.1024 19.6503Z" fill="white"/>
<path d="M73.4332 21.1701C70.9074 21.1701 67.9168 21.1701 64.4768 21.1548C59.6732 21.1394 54.9936 21.1087 51.9254 21.078C50.2209 21.0627 48.7953 21.0473 47.8036 21.0473C45.8667 21.032 45.8667 21.032 45.5568 20.8478L44.844 20.4486V19.6503C44.844 8.81194 53.7384 0 64.6782 0C75.4786 0 84.1871 8.61237 84.5125 19.6043L84.5435 20.4179L83.8462 20.8478C83.4278 21.1087 83.3503 21.1548 77.1676 21.1701C76.0519 21.1701 74.8123 21.1701 73.4332 21.1701ZM47.6952 18.284C53.6764 18.3301 76.0209 18.4836 81.6303 18.3608C80.7316 9.50277 73.5107 2.76333 64.6782 2.76333C55.7373 2.76333 48.3925 9.61023 47.6952 18.284Z" fill="#99042F"/>
<path d="M94.4916 70.3878C94.5071 70.8945 34.2451 70.3878 34.2451 70.3878C34.2451 53.9 47.7261 40.5439 64.3683 40.5439C81.0105 40.5439 94.0112 53.9154 94.4916 70.3878Z" fill="white"/>
<path d="M78.6861 71.9999C74.5643 71.9999 69.6678 71.9845 64.0584 71.9692C56.2022 71.9385 48.5629 71.8924 43.5424 71.8463C40.7532 71.831 38.4288 71.8156 36.8018 71.8003L34.9114 71.7849C33.9197 71.7696 33.8887 71.7696 33.5633 71.6007L32.8505 71.2016V70.3879C32.8505 53.1632 46.9824 39.1624 64.3683 39.1624C81.5373 39.1624 95.3748 52.8562 95.8861 70.3419L95.9171 71.1555L95.2043 71.5854C94.755 71.8463 94.5845 71.9538 84.7294 71.9845C82.9474 71.9999 80.933 71.9999 78.6861 71.9999ZM35.6706 69.0216C44.1467 69.0984 85.3802 69.3747 93.035 69.1291C91.9348 53.7773 79.5849 41.9257 64.3683 41.9257C48.9968 41.9257 36.3989 53.9615 35.6706 69.0216Z" fill="#99042F"/>
<path d="M51.3521 44.2131H48.5629V69.5436H51.3521V44.2131Z" fill="#99042F"/>
<path d="M80.1737 44.2131H77.3845V69.5436H80.1737V44.2131Z" fill="#99042F"/>
<path d="M77.5394 55.5735H49.9575V58.3368H77.5394V55.5735Z" fill="#99042F"/>
</g>
<defs>
<clipPath id="clip0">
<rect width="129" height="72" fill="white"/>
</clipPath>
</defs>
</svg>
