<svg width="520" height="382" viewBox="0 0 520 382" fill="none" xmlns="http://www.w3.org/2000/svg">
<path fill-rule="evenodd" clip-rule="evenodd" d="M307.16 257.086C324.368 224.497 373.391 279.868 414.237 275.32C455.084 270.772 419.354 223.903 429.193 196.778C445.245 152.507 449.825 32.3759 383.427 30.4889C317.028 28.6019 299.201 97.9058 250.952 95.9895C202.704 94.0733 145.968 36.9574 86.4113 60.9108C26.8541 84.8643 40.8338 192.435 126.249 218.443C196.93 239.961 182.218 273.81 214.829 293.253C247.44 312.696 282.45 303.889 307.16 257.086Z" fill="#B9D4EF"/>
<path fill-rule="evenodd" clip-rule="evenodd" d="M66.7166 59.2413C68.3536 63.1994 97.2007 52.2122 115.51 51.4842C133.818 50.7562 111.972 17.2255 92.2142 24.4471C72.4567 31.6687 64.4264 53.6933 66.7166 59.2413Z" fill="#B9D4EF"/>
<path fill-rule="evenodd" clip-rule="evenodd" d="M315.425 43.2585C311.711 25.6563 323.296 21.3259 332.808 25.3509C342.321 29.3759 329.325 35.5306 324.397 41.0033C319.469 46.476 315.818 45.1245 315.425 43.2585Z" fill="#B9D4EF"/>
<path fill-rule="evenodd" clip-rule="evenodd" d="M188.824 283.617C172.99 271.17 140.559 274.371 141.543 295.563C142.527 316.755 186.857 324.432 198.019 317.704C209.181 310.976 196.892 289.952 188.824 283.617Z" fill="#B9D4EF"/>
<path d="M128.878 193.72H399.177C399.177 193.72 447.074 194.431 435.804 226.853C424.533 259.275 334.383 271.542 299.636 271.542C264.89 271.542 124.963 276.651 93.9727 251.63C62.982 226.61 65.1759 193.774 128.878 193.72Z" fill="#CCAA75"/>
<path d="M204.031 155.892L196.495 148.888L191.295 151.043C191.295 151.043 189.31 158.281 189.201 158.457C189.092 158.633 192.94 165.465 192.94 165.465L196.562 168.557C199.814 166.041 202.535 162.905 204.567 159.331" fill="#6B6B6B"/>
<path d="M323.957 59.9652L127.672 58.6012H127.253H127.115C109.037 58.7769 94.362 73.6636 94.2364 92.0733C94.1066 110.7 108.865 125.901 127.195 126.026H127.521V126.123L172.848 126.211C177.315 126.231 181.592 128.018 184.743 131.182C187.894 134.346 189.663 138.629 189.662 143.093C189.641 147.553 187.854 151.823 184.693 154.971C181.531 158.118 177.252 159.887 172.789 159.892L44.1665 159.804V176.636L174.347 176.728C182.449 176.743 190.301 173.92 196.537 168.749C196.842 165.775 197.269 162.812 196.662 159.854C195.26 160.068 193.974 160.143 192.614 159.57C192.539 159.546 192.476 159.494 192.437 159.426C192.399 159.358 192.387 159.278 192.404 159.201C192.844 157.147 193.095 155.068 193.329 152.976C193.337 152.909 193.367 152.848 193.413 152.8V152.779L193.438 152.758C193.488 152.71 193.554 152.683 193.623 152.683C193.691 152.683 193.757 152.71 193.807 152.758C193.835 152.778 193.858 152.804 193.874 152.835C193.89 152.865 193.899 152.899 193.899 152.934C194.372 154.072 194.175 155.365 194.493 156.545C195.1 158.787 197.315 156.645 198.743 157.089C199.76 157.407 200.443 158.871 200.916 159.925C201.385 159.868 201.849 159.78 202.306 159.662C203.005 159.566 203.717 159.532 204.424 159.486C207.556 154.192 209.21 148.155 209.214 142.005C209.207 132.784 205.547 123.941 199.036 117.407C192.525 110.874 183.691 107.181 174.464 107.136L127.953 107.044V106.926H127.785C120.178 106.876 114.057 100.567 114.107 92.8389C114.106 89.3849 115.392 86.0543 117.714 83.4958C120.036 80.9372 123.227 79.334 126.667 78.9982C126.801 79.0509 126.943 79.0779 127.086 79.0777L129.766 79.0987C129.979 79.1279 130.184 79.153 130.414 79.1949L158.047 79.3832L158.01 79.2953L323.777 80.4459C324.106 80.446 324.422 80.3172 324.657 80.0872C324.892 79.8572 325.027 79.5443 325.034 79.2158L325.159 61.2246C325.16 60.9002 325.036 60.5878 324.812 60.353C324.588 60.1182 324.282 59.9792 323.957 59.9652Z" fill="#969696"/>
<path d="M324.812 83.3036C322.622 83.3036 321.462 81.7179 320.83 79.7597C319.948 76.4289 319.472 73.004 319.411 69.5591C319.487 66.1017 319.964 62.6648 320.83 59.3167C321.466 57.2247 322.622 55.7728 324.812 55.7728C327.001 55.7728 328.793 57.3669 328.793 59.3167C328.793 59.3167 328.006 64.7559 327.872 69.5382C327.801 72.9689 328.11 76.397 328.793 79.7597C328.793 81.7095 326.989 83.3036 324.812 83.3036Z" fill="#D3D3D3"/>
<path d="M330.246 69.216C330.246 75.8058 329.107 81.153 327.7 81.153C326.294 81.153 325.159 75.8058 325.159 69.216C325.159 62.6262 326.298 57.2791 327.7 57.2791C329.103 57.2791 330.246 62.622 330.246 69.216Z" fill="#B2B2B2"/>
<path d="M327.186 76.5214C328.039 76.5214 328.73 73.2769 328.73 69.2747C328.73 65.2724 328.039 62.028 327.186 62.028C326.332 62.028 325.641 65.2724 325.641 69.2747C325.641 73.2769 326.332 76.5214 327.186 76.5214Z" fill="#6B6B6B"/>
<path d="M41.1897 179.13C43.0068 179.13 43.9656 177.812 44.4931 176.201C45.2292 173.435 45.6271 170.59 45.678 167.729C45.6138 164.855 45.2162 162 44.4931 159.218C43.9656 157.478 43.0068 156.289 41.1897 156.289C39.3685 156.289 37.8821 157.612 37.8821 159.218C37.8821 159.218 38.5353 163.75 38.6441 167.712C38.7061 170.561 38.4505 173.408 37.8821 176.201C37.8821 177.82 39.3559 179.13 41.1897 179.13Z" fill="#D3D3D3"/>
<path d="M36.6763 167.427C36.6763 172.904 37.6225 177.343 38.7697 177.343C39.9169 177.343 40.8631 172.904 40.8631 167.427C40.8631 161.95 39.9169 157.511 38.7697 157.511C37.6225 157.511 36.6763 161.95 36.6763 167.427Z" fill="#B2B2B2"/>
<path d="M38.9874 174.561C39.8198 174.561 40.4947 171.39 40.4947 167.478C40.4947 163.565 39.8198 160.394 38.9874 160.394C38.155 160.394 37.4802 163.565 37.4802 167.478C37.4802 171.39 38.155 174.561 38.9874 174.561Z" fill="#6B6B6B"/>
<path d="M254.708 83.3036C252.518 83.3036 251.358 81.7179 250.726 79.7597C249.842 76.4293 249.364 73.0042 249.303 69.5591C249.38 66.1015 249.857 62.6644 250.726 59.3167C251.363 57.2247 252.518 55.7728 254.708 55.7728C256.893 55.7728 258.685 57.3669 258.685 59.3167C258.685 59.3167 257.902 64.7559 257.768 69.5382C257.695 72.9688 258.002 76.397 258.685 79.7597C258.685 81.7095 256.893 83.3036 254.708 83.3036Z" fill="#D3D3D3"/>
<path d="M177.202 82.7555C175.012 82.7555 173.852 81.1697 173.22 79.2158C172.336 75.884 171.858 72.4575 171.797 69.011C171.874 65.5548 172.352 62.1191 173.22 58.7727C173.857 56.6807 175.012 55.2289 177.202 55.2289C179.387 55.2289 181.179 56.823 181.179 58.7727C181.179 58.7727 180.396 64.2119 180.262 68.9943C180.189 72.4249 180.496 75.853 181.179 79.2158C181.179 81.1697 179.387 82.7555 177.202 82.7555Z" fill="#D3D3D3"/>
<path d="M156.586 130.01C158.772 130.01 159.936 128.424 160.564 126.466C161.448 123.135 161.926 119.71 161.987 116.265C161.91 112.808 161.432 109.37 160.564 106.023C159.927 103.931 158.772 102.479 156.586 102.479C154.396 102.479 152.604 104.073 152.604 106.023C152.604 106.023 153.387 111.462 153.521 116.244C153.595 119.675 153.288 123.103 152.604 126.466C152.604 128.411 154.396 130.01 156.586 130.01Z" fill="#D3D3D3"/>
<path d="M197.663 161.176C200.937 159.612 205.475 163.176 207.259 166.339C209.043 169.503 209.122 173.306 209.164 176.933C209.206 180.838 209.249 184.734 209.294 188.619C209.323 191.318 209.377 194.117 210.55 196.569C212.195 199.996 215.834 202.117 219.556 202.891C223.278 203.665 227.13 202.694 230.914 202.33C241.867 201.267 253.004 200.305 263.793 202.456C265.799 202.874 267.913 202.841 269.27 204.368C270.626 205.895 270.764 207.46 269.043 208.552C273.573 209.159 277.864 210.94 281.491 213.719C282.701 214.652 283.936 215.953 283.731 217.485C283.513 219.1 281.805 219.995 280.306 220.66C275.148 222.895 269.952 225.146 264.467 226.376C256.722 228.112 242.231 228.556 234.322 228.196C214.322 227.284 205.325 234.71 185.337 233.798C177.868 233.459 165.822 226.363 158.449 225.095C154.564 224.426 149.912 222.639 149.531 218.719C149.184 215.137 152.789 212.443 156.188 211.263C164.168 208.485 172.894 209.61 181.33 209.238C182.038 209.209 182.808 209.138 183.315 208.644C183.821 208.15 183.88 207.535 184.131 206.97C185.006 204.949 187.447 204.129 189.645 203.991C191.843 203.853 194.117 204.154 196.193 203.422C200.347 201.954 202.055 197.067 202.813 192.728C203.979 185.98 204.12 179.095 203.231 172.306C202.842 169.377 202.649 166.423 199.706 166.231C198.366 166.143 197.692 166.201 197.721 165.812C197.847 164.71 197.854 163.598 197.742 162.494" fill="#A0EAEA"/>
<path d="M197.123 197.485C197.005 196.537 196.602 195.647 195.965 194.933C195.328 194.22 194.489 193.718 193.56 193.494C193.278 193.401 192.977 193.38 192.684 193.432C192.392 193.485 192.117 193.61 191.885 193.795C191.64 194.078 191.484 194.428 191.437 194.799C191.307 195.481 191.316 196.268 191.801 196.757C192.159 197.056 192.595 197.247 193.057 197.305C194.362 197.583 195.689 197.744 197.022 197.786" fill="#A0EAEA"/>
<path d="M214.268 194.937C213.753 193.72 214.293 192.28 215.159 191.28C215.739 190.533 216.591 190.044 217.529 189.921C218.463 189.858 219.472 190.469 219.623 191.393C219.651 191.747 219.589 192.101 219.442 192.424C219.296 192.747 219.07 193.027 218.785 193.238C218.211 193.652 217.569 193.964 216.889 194.159L214.431 195.021" fill="#A0EAEA"/>
<path d="M199.756 189.151C199.936 188.422 199.853 187.653 199.521 186.979C199.19 186.306 198.631 185.771 197.943 185.469C197.532 185.286 197.072 185.24 196.633 185.339C196.415 185.391 196.215 185.498 196.051 185.651C195.887 185.804 195.766 185.996 195.699 186.209C195.656 186.438 195.669 186.674 195.736 186.897C195.804 187.12 195.925 187.323 196.089 187.49C196.419 187.816 196.801 188.086 197.219 188.289L199.467 189.544" fill="#A0EAEA"/>
<g opacity="0.29">
<path opacity="0.29" d="M272.866 213.882C273.703 214.058 274.595 213.912 275.449 214.041C276.303 214.171 277.212 214.74 277.258 215.602C277.317 216.656 276.144 217.276 275.165 217.665L265.393 221.334C263.919 221.886 262.462 222.443 260.938 222.911C256.992 224.136 252.886 224.762 248.754 224.769" stroke="#32AFB2" stroke-width="0.75" stroke-linecap="round" stroke-linejoin="round"/>
<path opacity="0.29" d="M163.247 212.966C161.003 213.016 158.684 213.079 156.645 214.016C154.606 214.953 152.898 217.004 153.094 219.242C153.11 219.642 153.244 220.028 153.48 220.351C153.66 220.559 153.881 220.728 154.128 220.849C157.172 222.522 161.275 221.137 164.231 222.974C164.826 223.347 165.345 223.832 165.906 224.254C167.504 225.437 169.44 226.072 171.428 226.066" stroke="#32AFB2" stroke-width="0.75" stroke-linecap="round" stroke-linejoin="round"/>
<path opacity="0.29" d="M161.61 215.058C160.209 214.735 158.747 214.783 157.369 215.196C156.067 215.589 154.673 216.753 155.083 218.05C155.431 219.142 156.783 219.476 157.918 219.635L159.257 219.819" stroke="#32AFB2" stroke-width="0.75" stroke-linecap="round" stroke-linejoin="round"/>
<path opacity="0.29" d="M267.679 215.058C267.752 215.106 267.816 215.169 267.866 215.242C267.915 215.315 267.95 215.397 267.967 215.483C267.985 215.57 267.985 215.659 267.968 215.745C267.951 215.832 267.916 215.914 267.867 215.987C267.654 216.276 267.364 216.499 267.03 216.631C263.572 218.364 259.999 219.857 256.337 221.1" stroke="#32AFB2" stroke-width="0.75" stroke-linecap="round" stroke-linejoin="round"/>
</g>
<g opacity="0.3">
<path opacity="0.3" d="M200.573 163.231C203.503 164.461 204.994 167.264 206.225 170.017C207.795 173.523 207.012 177.82 206.886 181.586C206.886 181.787 207.192 181.787 207.2 181.586C207.326 177.72 208.138 173.473 206.497 169.871C205.241 167.059 203.704 164.222 200.732 162.967C200.548 162.888 200.388 163.16 200.573 163.239V163.231Z" fill="#00ECFF"/>
</g>
<g opacity="0.3">
<path opacity="0.3" d="M207.029 192.084C206.828 195.012 207.895 197.611 209.264 200.129C210.424 202.272 211.726 204.51 213.962 205.673C216.198 206.836 218.676 206.815 221.08 206.51C224.961 206.008 228.758 205.163 232.664 204.795C232.865 204.795 232.87 204.464 232.664 204.481C229.977 204.732 227.303 205.096 224.643 205.573C221.779 206.092 218.823 206.79 215.93 206.071C212.966 205.334 211.324 203.117 209.888 200.594C208.394 197.95 207.142 195.192 207.376 192.088C207.376 191.887 207.075 191.891 207.062 192.088L207.029 192.084Z" fill="#32AFB2"/>
</g>
<g opacity="0.3">
<path opacity="0.3" d="M207.983 201.975C209.143 203.711 209.959 205.531 211.818 206.64C213.677 207.749 215.821 207.979 217.935 208.029C217.973 208.023 218.006 208.004 218.031 207.975C218.055 207.946 218.069 207.91 218.069 207.872C218.069 207.834 218.055 207.798 218.031 207.769C218.006 207.74 217.973 207.721 217.935 207.715C215.875 207.669 213.778 207.452 211.977 206.368C210.177 205.284 209.373 203.493 208.255 201.816C208.142 201.648 207.87 201.816 207.983 201.975Z" fill="#32AFB2"/>
</g>
<path d="M342.739 132.78C341.751 136.964 340.709 141.106 340.504 145.415C340.617 145.624 340.596 146.407 340.47 146.193C340.445 146.888 339.386 146.763 339.386 146.076C339.386 145.629 339.386 145.185 339.432 144.75C336.962 141.683 333.374 139.729 330.472 137.081C328.141 134.991 326.441 132.291 325.565 129.286C323.158 121.002 325.415 112.224 322.521 103.96C320.009 96.8473 315.555 90.6466 311.77 84.1907C307.776 77.3666 304.828 70.1952 304.531 62.1995C304.296 56.0783 305.025 47.9195 309.693 43.3338C314.638 38.4678 320.767 42.1163 324.556 46.4551C335.534 59.0448 340.617 74.9607 342.668 91.224C343.799 100.228 344.975 109.291 344.703 118.378C344.53 123.232 343.872 128.056 342.739 132.78Z" fill="#79C8CC"/>
<path d="M340.554 148.721C341.154 140.219 341.053 131.683 340.253 123.198C340.253 123.165 340.29 123.144 340.294 123.102C340.433 116.207 340.981 109.341 340.713 102.437C340.378 94.9683 339.361 87.5456 337.674 80.2619C337.674 80.1782 337.523 80.1991 337.54 80.2619C338.884 87.4186 339.687 94.6662 339.943 101.943C340.081 105.839 340.056 109.738 339.846 113.629C339.779 114.885 339.662 116.173 339.579 117.449C336.794 98.0398 329.626 79.6301 319.063 63.1535C318.921 62.9317 318.523 63.1535 318.665 63.4003C326.274 75.8885 331.906 89.4768 335.362 103.684C330.083 93.9101 322.107 85.8727 316.191 76.4879C316.187 76.4822 316.183 76.4771 316.177 76.4732C316.172 76.4692 316.166 76.4664 316.159 76.4648C316.152 76.4633 316.145 76.463 316.139 76.4641C316.132 76.4652 316.126 76.4676 316.12 76.4712C316.114 76.4748 316.109 76.4794 316.105 76.4849C316.101 76.4905 316.098 76.4967 316.097 76.5033C316.095 76.5099 316.095 76.5167 316.096 76.5234C316.097 76.5301 316.1 76.5365 316.103 76.5423C321.416 87.0023 330.196 95.2448 335.781 105.546C336.752 109.73 337.548 113.985 338.138 118.249C338.922 124.1 339.342 129.994 339.394 135.897C336.2 129.88 332.85 124.135 330.234 117.78C330.162 117.613 329.92 117.726 329.974 117.897C332.214 124.495 335.224 131.604 339.432 137.231C339.457 141.415 339.331 145.599 339.089 149.758C338.431 160.896 336.526 171.888 335.647 182.988C335.644 183.021 335.647 183.055 335.656 183.087C335.666 183.12 335.681 183.15 335.703 183.176C335.724 183.202 335.75 183.224 335.78 183.24C335.809 183.256 335.842 183.267 335.875 183.27C335.909 183.274 335.943 183.271 335.975 183.261C336.007 183.252 336.038 183.236 336.064 183.215C336.09 183.193 336.112 183.167 336.128 183.138C336.144 183.108 336.154 183.076 336.158 183.042C338.469 171.837 339.792 160.13 340.554 148.721Z" fill="#6BB7BF"/>
<path d="M328.718 62.8271C328.684 62.7477 328.563 62.802 328.592 62.8815C330.627 68.509 331.778 74.2076 333.248 79.9732C333.262 80.0234 333.295 80.0666 333.339 80.0946C333.383 80.1226 333.435 80.1336 333.487 80.1253C333.539 80.1171 333.585 80.0902 333.618 80.0499C333.652 80.0095 333.669 79.9584 333.667 79.9063C333.072 74.057 330.983 68.2203 328.718 62.8271Z" fill="#6BB7BF"/>
<path d="M380.408 86.404C379.053 89.7073 377.489 92.9215 375.727 96.0272C372.064 102.68 368.237 108.776 367.546 116.529C367.236 119.989 367.128 123.462 366.072 126.796C365.109 129.66 363.729 132.367 361.978 134.83C358.005 140.616 353.039 145.599 349.359 151.599C345.534 157.86 342.709 164.678 340.985 171.808C340.893 172.197 340.282 172.092 340.37 171.703C340.383 171.676 340.392 171.646 340.395 171.616C340.375 171.592 340.362 171.563 340.357 171.532C339.775 154.926 341.102 138.185 346.173 122.273C348.409 115.273 351.099 108.424 354.224 101.772C356.941 96.0021 360.324 90.4541 365.109 86.1446C368.204 83.358 374.911 78.082 379.315 80.8769C381.417 82.2116 381.241 84.3287 380.408 86.404Z" fill="#79C8CC"/>
<path d="M363.707 124.056C360.856 128.926 357.477 133.457 354.048 137.93C352.44 140.022 350.807 142.114 349.2 144.206C348.442 145.198 347.592 146.189 346.893 147.256C347.332 145.507 347.759 143.758 348.207 142.014C350.351 133.625 352.394 125.156 355.605 117.09C358.729 109.203 362.882 101.793 367.144 94.4959C367.257 94.3034 366.948 94.1653 366.834 94.3536C363.322 100.123 359.759 105.889 356.807 111.972C355.176 115.369 353.754 118.863 352.549 122.432C353.902 114.861 355.796 107.396 358.214 100.094C358.239 100.027 358.143 99.9811 358.118 100.048C355.053 107.291 352.851 115.433 352.235 123.282C352.231 123.294 352.231 123.307 352.235 123.319C351.515 125.478 350.853 127.654 350.234 129.851C347.617 139.139 345.319 148.532 343.183 157.955C343.149 151.761 343.688 145.577 344.791 139.482C344.816 139.344 344.603 139.311 344.573 139.445C343.028 145.767 342.329 152.415 342.966 158.917C342.162 162.499 341.377 166.084 340.613 169.674C338.976 177.331 336.97 185.121 336.007 192.895C336.004 192.915 336.004 192.936 336.008 192.956C336.013 192.976 336.021 192.995 336.033 193.011C336.044 193.028 336.059 193.042 336.076 193.053C336.093 193.064 336.113 193.072 336.133 193.075C336.153 193.079 336.173 193.078 336.193 193.074C336.213 193.07 336.232 193.061 336.249 193.05C336.265 193.038 336.28 193.023 336.291 193.006C336.302 192.989 336.309 192.97 336.313 192.95C337.452 188.766 338.142 184.414 339.076 180.172C340.01 175.929 340.973 171.666 341.965 167.423C343.405 161.243 344.921 155.08 346.457 148.926C347.487 146.666 349.48 144.666 350.971 142.771C352.608 140.679 354.245 138.616 355.836 136.495C358.824 132.59 361.498 128.454 363.833 124.127C363.904 124.031 363.757 123.968 363.707 124.056Z" fill="#6BB7BF"/>
<path d="M364.415 116.951C360.76 121.618 357.593 126.647 354.965 131.959C354.931 132.031 355.036 132.102 355.078 132.035C358.26 127.052 361.387 122.031 364.561 117.048C364.615 116.96 364.473 116.876 364.415 116.951Z" fill="#6BB7BF"/>
<path d="M293.666 102.148C295.818 105.86 298.271 110.311 297.355 114.759C296.764 117.579 294.704 119.864 294.332 122.738C293.494 129.085 299.821 133.277 304.38 136.273C315.793 143.754 331.443 150.428 333.52 165.708C333.595 166.247 334.533 166.126 334.466 165.582C334.464 165.548 334.455 165.514 334.441 165.482C334.466 165.448 334.5 165.436 334.5 165.394C335.997 157.679 335.925 149.742 334.286 142.056C332.582 134.177 329.145 127.102 325.075 120.182C318.209 108.466 310.932 96.4833 300.549 87.5128C297.673 85.0317 291.786 80.5715 289.496 86.1697C287.306 91.6298 291.028 97.6297 293.666 102.148Z" fill="#79C8CC"/>
<path d="M304.112 126.976C311.678 135.16 323.706 139.75 330.221 148.921C326.361 134.867 319.972 122.228 310.154 111.265C310.106 111.208 310.082 111.136 310.085 111.062C310.088 110.988 310.119 110.918 310.172 110.865C310.224 110.813 310.294 110.782 310.369 110.778C310.443 110.775 310.515 110.8 310.572 110.847C317.778 117.742 323.082 125.813 326.989 134.57C325.191 128.353 322.828 122.312 319.93 116.525C319.821 116.303 320.135 116.106 320.261 116.328C323.92 122.558 326.352 129.554 327.872 136.612C336.455 157.373 337.251 181.724 335.45 203.606C335.425 203.92 334.948 203.929 334.96 203.606C335.45 186.36 335.174 168.816 331.037 151.972C330.949 151.62 330.853 151.273 330.765 150.926C323.681 141.056 311.703 136.478 303.999 127.106C303.907 127.018 304.028 126.888 304.112 126.976Z" fill="#6BB7BF"/>
<path d="M302.358 119.947C306.327 123.587 310.237 127.311 314.219 130.951C314.257 130.989 314.219 131.06 314.16 131.026C309.659 127.991 305.606 124.341 302.119 120.181C302.09 120.149 302.075 120.108 302.077 120.065C302.078 120.022 302.096 119.981 302.127 119.951C302.157 119.921 302.199 119.903 302.242 119.903C302.285 119.902 302.326 119.918 302.358 119.947Z" fill="#6BB7BF"/>
<path d="M301.73 104.182C305.242 109.933 309.216 115.391 313.612 120.499C313.624 120.513 313.63 120.531 313.63 120.549C313.629 120.567 313.622 120.584 313.609 120.597C313.596 120.61 313.579 120.617 313.561 120.618C313.543 120.618 313.525 120.612 313.511 120.6C308.688 115.956 304.405 110.341 301.516 104.282C301.511 104.256 301.514 104.228 301.527 104.204C301.539 104.179 301.559 104.16 301.584 104.148C301.608 104.137 301.636 104.134 301.663 104.14C301.689 104.146 301.713 104.161 301.73 104.182Z" fill="#6BB7BF"/>
<path d="M319.612 219.041H354.404L349.715 172.264H324.971L319.612 219.041Z" fill="#998C61"/>
<path d="M324.096 179.866H350.481L349.719 172.26H324.967L324.096 179.866Z" fill="#897C55"/>
<path d="M320.704 174.548H353.315V167.08H320.704V174.548Z" fill="#998C61"/>
<path d="M399.475 120.692C399.057 116.635 397.254 112.846 394.368 109.963C391.483 107.079 387.691 105.277 383.632 104.86C383.028 104.797 382.422 104.767 381.815 104.768H112.805C109.155 104.769 105.594 105.895 102.607 107.991C99.6202 110.087 97.3523 113.052 96.1121 116.483V116.52C95.9865 116.876 95.8693 117.24 95.7646 117.608C95.7311 117.73 95.6934 117.855 95.6599 117.981C95.6264 118.106 95.5929 118.248 95.5594 118.399C95.5259 118.55 95.4966 118.671 95.4673 118.818C95.438 118.964 95.4129 119.077 95.3878 119.207C95.3627 119.336 95.3333 119.499 95.3124 119.646C95.2915 119.792 95.2705 119.897 95.2538 120.022C95.2371 120.148 95.2077 120.34 95.191 120.504L95.1533 120.851C95.1533 121.035 95.124 121.219 95.1115 121.403C95.1115 121.499 95.1115 121.596 95.1115 121.696C95.1115 121.976 95.0905 122.261 95.0905 122.533V254.045C95.0905 254.35 95.0905 254.656 95.1156 254.957C95.1437 255.555 95.2038 256.151 95.2957 256.743C95.3417 257.04 95.392 257.329 95.4506 257.618C96.213 261.313 98.134 264.669 100.935 267.199C103.735 269.73 107.27 271.302 111.025 271.689C111.628 271.751 112.233 271.782 112.838 271.781H381.836C385.486 271.779 389.047 270.653 392.035 268.557C395.022 266.461 397.291 263.496 398.533 260.065C398.533 260.036 399.161 257.898 399.19 257.76C399.219 257.622 399.609 254.317 399.609 254.032V122.504C399.567 121.893 399.533 121.286 399.475 120.692ZM365.746 263.174H119.248V113.387H365.746V263.174Z" fill="#282828"/>
<path d="M107.99 157.704V218.606C107.99 219.491 108.708 220.208 109.594 220.208H109.598C110.483 220.208 111.201 219.491 111.201 218.606V157.704C111.201 156.819 110.483 156.101 109.598 156.101H109.594C108.708 156.101 107.99 156.819 107.99 157.704Z" fill="#515151"/>
<path d="M95.0989 196.807V232.581C95.0989 232.581 66.7668 274.718 66.5282 267.358C66.2895 259.998 59.4106 225.317 62.2618 221.815C65.113 218.313 87.3826 189.406 87.3826 189.406L95.0989 196.807Z" fill="#F7A491"/>
<path d="M138.21 175.774C116.615 176.695 115.765 212.761 102.807 226.945C96.3675 233.991 90.3552 234.497 85.7623 233.012C78.7536 230.748 75.4251 222.765 78.448 216.054C83.0828 205.757 95.0403 196.912 95.0403 196.912V171.172L58.6151 203.418C53.9119 207.576 50.7408 213.191 49.6093 219.363C40.6119 268.542 57.401 353.34 57.401 353.34C57.401 353.34 89.7021 366.159 125.265 353.34L116.347 312.755C136.159 291.956 133.684 243.928 134.672 224.137C135.43 209.029 139.935 189.017 142.029 180.385C142.165 179.821 142.167 179.232 142.036 178.666C141.905 178.101 141.643 177.573 141.273 177.126C140.903 176.678 140.433 176.323 139.901 176.089C139.37 175.854 138.791 175.747 138.21 175.774Z" fill="#FFCCBC"/>
<path d="M356.426 187.08C356.426 187.08 342.216 188.28 341.718 192.046C341.22 195.812 342.317 202.473 355.727 203.761H369.623C369.623 203.761 365.465 192.243 365.666 191.845C365.867 191.448 356.426 187.08 356.426 187.08Z" fill="#F7A491"/>
<path d="M333.629 243.363C333.173 243.608 332.772 243.942 332.448 244.346C332.124 244.749 331.885 245.214 331.745 245.712C331.605 246.209 331.566 246.73 331.632 247.243C331.697 247.756 331.865 248.251 332.126 248.697C338.666 259.969 364.662 304.763 367.006 308.395C369.69 312.579 376.246 322.395 397.988 327.457C419.73 332.52 434.832 356.955 434.832 356.955C465.287 366.44 492.974 338.373 492.974 338.373C492.974 338.373 479.995 322.098 466.857 257.162C466.857 257.162 456.725 203.247 437.646 205.033C437.646 205.033 426.023 192.82 414.698 195.205C414.698 195.205 393.236 182.394 381.015 182.394L351.662 147.725C350.27 146.058 348.293 144.987 346.136 144.731C343.979 144.476 341.806 145.056 340.064 146.352C338.866 147.198 338.05 148.482 337.795 149.926C336.899 155.587 344.351 169.883 356.275 187.163C368.199 204.443 397.725 259.25 384.888 283.395C384.888 283.395 371.775 273.563 360.45 257.777C350.962 244.534 339.804 240.087 333.629 243.363Z" fill="#FFCCBC"/>
<path d="M381.124 182.423C385.009 185.772 388.681 189.361 392.119 193.167C393.852 195.058 395.51 197.021 397.143 199C398.776 200.979 400.321 203.033 401.828 205.117C402.581 206.159 403.297 207.209 404.026 208.288C404.754 209.368 405.445 210.43 406.119 211.539C407.451 213.736 408.74 215.97 409.854 218.292L410.273 219.158C410.411 219.451 410.54 219.744 410.691 220.037C410.955 220.627 411.235 221.204 411.474 221.803L412.194 223.598C412.429 224.196 412.638 224.807 412.852 225.413C413.065 226.02 413.27 226.639 413.429 227.254L413.706 228.179C413.798 228.489 413.861 228.802 413.944 229.116L414.17 230.053C414.246 230.363 414.33 230.673 414.38 230.991L414.706 232.886H414.618C414.073 230.391 413.331 227.943 412.399 225.564C411.479 223.183 410.419 220.858 409.226 218.602C408.644 217.464 408.007 216.355 407.384 215.255C406.76 214.154 406.09 213.054 405.399 211.979C404.708 210.903 404.009 209.836 403.306 208.769C402.602 207.703 401.861 206.677 401.108 205.631C398.139 201.477 394.932 197.489 391.591 193.628C389.916 191.697 388.203 189.802 386.45 187.941C384.695 186.084 382.912 184.251 381.065 182.502L381.124 182.423Z" fill="#EAA0A0"/>
<path d="M414.493 195.109C417.652 196.783 420.52 198.957 422.984 201.548C424.237 202.83 425.406 204.191 426.484 205.623C427.551 207.063 428.529 208.567 429.415 210.125C431.176 213.252 432.53 216.592 433.442 220.062C433.647 220.932 433.89 221.794 434.037 222.673C434.116 223.091 434.204 223.552 434.275 223.991L434.464 225.313L434.543 225.974C434.568 226.196 434.581 226.418 434.602 226.639L434.707 227.97C434.778 228.853 434.778 229.744 434.79 230.627H434.702C434.41 227.113 433.762 223.638 432.768 220.255C432.264 218.566 431.664 216.908 430.972 215.288C430.645 214.451 430.248 213.686 429.879 212.886C429.511 212.087 429.08 211.317 428.623 210.556C426.898 207.482 424.825 204.616 422.444 202.016C421.261 200.714 420.003 199.481 418.675 198.326C417.348 197.167 415.932 196.115 414.438 195.18L414.493 195.109Z" fill="#EAA0A0"/>
<path d="M437.424 204.782C439.352 206.297 441.045 208.089 442.448 210.1L442.984 210.845C443.16 211.096 443.315 211.359 443.482 211.619C443.805 212.138 444.148 212.648 444.437 213.184C444.592 213.447 444.734 213.719 444.881 213.987C445.027 214.255 445.182 214.522 445.299 214.799L446.095 216.472C446.229 216.748 446.338 217.033 446.455 217.309L446.794 218.146L447.133 218.983C447.246 219.267 447.338 219.56 447.43 219.853L447.987 221.598C448.155 222.188 448.289 222.782 448.431 223.376C448.715 224.562 448.939 225.761 449.101 226.97L449.164 227.422L449.201 227.874C449.226 228.179 449.256 228.48 449.272 228.786L449.327 229.694L449.369 230.606H449.277L448.971 228.828L448.816 227.941L448.741 227.497L448.636 227.079L448.217 225.321C448.146 225.029 448.092 224.731 448.004 224.447L447.749 223.581C447.577 223.003 447.414 222.426 447.233 221.853L446.631 220.15C446.53 219.87 446.438 219.581 446.325 219.313L445.977 218.476L445.634 217.64C445.517 217.359 445.408 217.079 445.274 216.803L444.508 215.171C444.248 214.631 443.955 214.104 443.671 213.569C443.386 213.033 443.08 212.523 442.779 212.004C442.624 211.744 442.481 211.481 442.318 211.225L441.828 210.468C440.54 208.437 439.04 206.547 437.353 204.832L437.424 204.782Z" fill="#EAA0A0"/>
<path d="M220.121 178.025V157.737H240.423" stroke="black" stroke-width="4" stroke-miterlimit="10"/>
<path d="M253.41 157.737H273.712V178.025" stroke="black" stroke-width="4" stroke-miterlimit="10"/>
<path d="M273.712 191.004V211.292H253.41" stroke="black" stroke-width="4" stroke-miterlimit="10"/>
<path d="M240.423 211.292H220.121V191.004" stroke="black" stroke-width="4" stroke-miterlimit="10"/>
<path d="M236.156 184.515H257.676" stroke="black" stroke-width="4" stroke-miterlimit="10"/>
<path d="M246.916 173.762V195.268" stroke="black" stroke-width="4" stroke-miterlimit="10"/>
<path d="M222.738 254.806C226.437 254.806 229.436 251.809 229.436 248.112C229.436 244.414 226.437 241.417 222.738 241.417C219.038 241.417 216.039 244.414 216.039 248.112C216.039 251.809 219.038 254.806 222.738 254.806Z" fill="#D62121"/>
<path d="M241.059 248.361C241.059 249.631 240.842 250.574 240.408 251.191C239.975 251.809 239.297 252.117 238.375 252.117C237.465 252.117 236.791 251.816 236.354 251.215C235.916 250.609 235.689 249.707 235.674 248.508V247.061C235.674 245.807 235.891 244.875 236.324 244.266C236.758 243.656 237.438 243.352 238.363 243.352C239.281 243.352 239.957 243.646 240.391 244.236C240.824 244.822 241.047 245.729 241.059 246.955V248.361ZM239.975 246.879C239.975 245.961 239.846 245.293 239.588 244.875C239.33 244.453 238.922 244.242 238.363 244.242C237.809 244.242 237.404 244.451 237.15 244.869C236.896 245.287 236.766 245.93 236.758 246.797V248.531C236.758 249.453 236.891 250.135 237.156 250.576C237.426 251.014 237.832 251.232 238.375 251.232C238.91 251.232 239.307 251.025 239.564 250.611C239.826 250.197 239.963 249.545 239.975 248.654V246.879ZM247.797 248.361C247.797 249.631 247.58 250.574 247.146 251.191C246.713 251.809 246.035 252.117 245.113 252.117C244.203 252.117 243.529 251.816 243.092 251.215C242.654 250.609 242.428 249.707 242.412 248.508V247.061C242.412 245.807 242.629 244.875 243.062 244.266C243.496 243.656 244.176 243.352 245.102 243.352C246.02 243.352 246.695 243.646 247.129 244.236C247.562 244.822 247.785 245.729 247.797 246.955V248.361ZM246.713 246.879C246.713 245.961 246.584 245.293 246.326 244.875C246.068 244.453 245.66 244.242 245.102 244.242C244.547 244.242 244.143 244.451 243.889 244.869C243.635 245.287 243.504 245.93 243.496 246.797V248.531C243.496 249.453 243.629 250.135 243.895 250.576C244.164 251.014 244.57 251.232 245.113 251.232C245.648 251.232 246.045 251.025 246.303 250.611C246.564 250.197 246.701 249.545 246.713 248.654V246.879ZM249.262 251.432C249.262 251.244 249.316 251.088 249.426 250.963C249.539 250.838 249.707 250.775 249.93 250.775C250.152 250.775 250.32 250.838 250.434 250.963C250.551 251.088 250.609 251.244 250.609 251.432C250.609 251.611 250.551 251.762 250.434 251.883C250.32 252.004 250.152 252.064 249.93 252.064C249.707 252.064 249.539 252.004 249.426 251.883C249.316 251.762 249.262 251.611 249.262 251.432ZM249.268 246.258C249.268 246.07 249.322 245.914 249.432 245.789C249.545 245.664 249.713 245.602 249.936 245.602C250.158 245.602 250.326 245.664 250.439 245.789C250.557 245.914 250.615 246.07 250.615 246.258C250.615 246.438 250.557 246.588 250.439 246.709C250.326 246.83 250.158 246.891 249.936 246.891C249.713 246.891 249.545 246.83 249.432 246.709C249.322 246.588 249.268 246.438 249.268 246.258ZM257.682 252H252.092V251.221L255.045 247.939C255.482 247.443 255.783 247.041 255.947 246.732C256.115 246.42 256.199 246.098 256.199 245.766C256.199 245.32 256.064 244.955 255.795 244.67C255.525 244.385 255.166 244.242 254.717 244.242C254.178 244.242 253.758 244.396 253.457 244.705C253.16 245.01 253.012 245.436 253.012 245.982H251.928C251.928 245.197 252.18 244.562 252.684 244.078C253.191 243.594 253.869 243.352 254.717 243.352C255.51 243.352 256.137 243.561 256.598 243.979C257.059 244.393 257.289 244.945 257.289 245.637C257.289 246.477 256.754 247.477 255.684 248.637L253.398 251.115H257.682V252ZM262.393 252H261.303V244.775L259.117 245.578V244.594L262.223 243.428H262.393V252Z" fill="black"/>
</svg>
