<svg width="587" height="468" viewBox="0 0 587 468" fill="none" xmlns="http://www.w3.org/2000/svg">
<path fill-rule="evenodd" clip-rule="evenodd" d="M257.208 318.278C285.929 294.098 303.135 358.543 339.566 366.652C375.997 374.761 366.296 321.945 386.414 300.476C419.254 265.447 475.489 158.744 420.313 137.237C365.137 115.73 319.885 172.732 280.029 156.59C240.173 140.448 217.224 72.1405 156.552 75.8979C95.8796 79.6552 60.7789 180.589 121.461 229.487C171.691 269.956 144.524 296.005 163.554 323.229C182.584 350.453 215.965 352.993 257.208 318.278Z" fill="#99042F"/>
<path fill-rule="evenodd" clip-rule="evenodd" d="M140.671 68.5117C140.324 72.5638 169.44 71.2987 185.201 76.1214C200.963 80.9441 197.153 44.2555 177.34 44.8453C157.526 45.4351 141.156 62.8424 140.671 68.5117Z" fill="#99042F"/>
<path fill-rule="evenodd" clip-rule="evenodd" d="M357.389 128.415C361.931 111.473 373.588 111.041 379.859 117.499C386.129 123.958 372.486 125.613 365.945 129.061C359.403 132.51 356.91 130.208 357.389 128.415Z" fill="#99042F"/>
<path fill-rule="evenodd" clip-rule="evenodd" d="M145.835 306.797C137.902 290.874 109.157 284.068 100.749 303.42C92.3406 322.773 126.401 342.929 138.752 340.204C151.103 337.479 149.877 314.92 145.835 306.797Z" fill="#99042F"/>
<path d="M128.434 276.196C128.434 276.196 79.2532 282.407 69.8284 297.123C60.4036 311.838 89.0913 347.262 107.87 348.86C126.648 350.458 142.073 338.301 144.258 319.22C146.443 300.138 145.289 275.93 128.434 276.196Z" fill="#99042F"/>
<path d="M332.003 106.732H187.021V362.177H332.003V106.732Z" fill="#BFDBF7"/>
<g style="mix-blend-mode:multiply" opacity="0.2">
<path d="M320.787 126.774H196.398C195.065 126.774 193.985 127.856 193.985 129.19V179.766C193.985 181.101 195.065 182.182 196.398 182.182H320.787C322.12 182.182 323.201 181.101 323.201 179.766V129.19C323.201 127.856 322.12 126.774 320.787 126.774Z" fill="#020202"/>
</g>
<path d="M322.659 124.805H198.27C196.937 124.805 195.857 125.887 195.857 127.221V177.797C195.857 179.132 196.937 180.213 198.27 180.213H322.659C323.992 180.213 325.072 179.132 325.072 177.797V127.221C325.072 125.887 323.992 124.805 322.659 124.805Z" fill="white"/>
<path opacity="0.3" d="M289.23 169.26L286.219 169.745L288.437 171.843L287.962 174.858L290.641 173.398L293.359 174.777L292.803 171.776L294.955 169.617L291.929 169.222L290.542 166.501L289.23 169.26Z" fill="#FFBC47"/>
<path d="M278.561 169.26L275.554 169.745L277.768 171.843L277.293 174.858L279.972 173.398L282.689 174.777L282.133 171.776L284.285 169.617L281.259 169.222L279.872 166.501L278.561 169.26Z" fill="#FFBC47"/>
<path d="M267.892 169.26L264.885 169.745L267.098 171.843L266.628 174.858L269.303 173.398L272.025 174.777L271.464 171.776L273.616 169.617L270.59 169.222L269.203 166.501L267.892 169.26Z" fill="#FFBC47"/>
<path d="M256.434 171.843L255.954 174.853L258.533 173.455L258.633 173.403L261.35 174.782L260.799 171.776L262.947 169.617L259.925 169.222L258.533 166.501L257.222 169.26L254.211 169.745L256.434 171.843Z" fill="#FFBC47"/>
<path d="M246.558 169.26L243.546 169.745L245.76 171.843L245.289 174.858L247.964 173.398L250.686 174.777L250.125 171.776L252.277 169.617L249.256 169.222L247.864 166.501L246.558 169.26Z" fill="#FFBC47"/>
<g opacity="0.5">
<path opacity="0.5" d="M243.546 138.631H301.881" stroke="#3F3F3F" stroke-width="8" stroke-miterlimit="10"/>
</g>
<g opacity="0.5">
<path opacity="0.5" d="M243.546 145.851H313.04" stroke="#3F3F3F" stroke-miterlimit="10"/>
</g>
<g opacity="0.5">
<path opacity="0.5" d="M243.546 152H313.04" stroke="#3F3F3F" stroke-miterlimit="10"/>
</g>
<g opacity="0.5">
<path opacity="0.5" d="M243.546 158.155H313.04" stroke="#3F3F3F" stroke-miterlimit="10"/>
</g>
<path d="M229.973 160.424C235.867 154.524 235.867 144.956 229.973 139.056C224.079 133.155 214.523 133.155 208.63 139.056C202.736 144.956 202.736 154.524 208.63 160.424C214.523 166.325 224.079 166.325 229.973 160.424Z" fill="#D67F91"/>
<path d="M225.784 146.383C226.953 148.409 225.941 151.177 227.124 153.194C227.599 154.002 228.402 154.621 228.625 155.548C228.72 155.932 228.703 156.336 228.574 156.711C228.445 157.085 228.211 157.414 227.9 157.658C227.588 157.902 227.213 158.051 226.819 158.085C226.425 158.12 226.029 158.04 225.68 157.855C225.537 157.766 225.386 157.691 225.228 157.631C224.639 157.46 224.112 157.979 223.608 158.321C223.306 158.541 222.958 158.69 222.591 158.756C222.223 158.822 221.845 158.803 221.485 158.702C220.573 158.397 220.012 157.479 219.713 156.571C218.868 154.026 219.466 151.249 220.25 148.685C220.639 147.406 221.2 145.984 222.468 145.518" fill="#563D22"/>
<path d="M220.905 155.42C220.905 155.42 220.853 157.75 221.214 157.903C221.7 158.104 222.202 158.263 222.715 158.378C222.715 158.378 221.072 160.219 219.818 160.162C218.055 160.076 216.516 158.06 216.54 157.784C216.578 157.308 216.288 154.749 216.288 154.749" fill="#FFCCBC"/>
<path d="M225.547 145.917C225.547 145.917 225.912 150.416 225.148 152.771C224.578 154.521 222.25 156.147 220.297 156.128C214.934 156.128 213.97 148.828 213.998 148.476C214.027 148.124 221.913 145.061 221.913 145.061L225.547 145.917Z" fill="#FFCCBC"/>
<path d="M217.932 157.941C217.932 157.941 220.378 160.661 221.214 157.903C223.328 158.492 225.604 158.916 226.516 160.837C229.437 169.484 219.898 170.24 217.195 170.24C213.395 170.24 207.106 168.138 210.265 161.004C211.243 158.802 212.711 157.427 217.932 157.941Z" fill="#FFBC47"/>
<path d="M211.205 159.268C211.086 159.206 210.972 159.134 210.858 159.068C210.225 158.768 209.72 158.252 209.433 157.612C209.058 156.604 208.882 155.058 209.4 154.079C209.756 153.418 210.421 152.985 210.873 152.39C211.451 151.521 211.754 150.496 211.742 149.451C211.728 148.415 211.798 147.38 211.951 146.355C212.321 144.619 212.816 142.968 214.15 141.851C216.288 140.062 220.573 138.997 222.901 140.999C223.323 141.361 223.409 141.651 223.979 141.708C224.668 141.735 225.34 141.931 225.936 142.279C226.701 142.721 227.627 143.344 227.518 144.348C227.313 145.212 226.795 145.969 226.064 146.474C225.808 146.602 225.524 146.665 225.238 146.659C224.33 146.659 223.575 146.084 222.687 146.184C222.247 146.238 221.845 146.462 221.566 146.807C221.247 147.201 221.29 147.758 220.915 148.129C220.312 148.723 219.381 148.671 218.668 149.08C218.545 149.135 218.438 149.222 218.359 149.332C218.303 149.451 218.277 149.581 218.283 149.713C218.283 150.093 218.269 150.469 218.24 150.84C217.889 150.688 217.851 150.183 217.556 149.927C217.404 149.819 217.22 149.766 217.034 149.779C216.848 149.791 216.672 149.866 216.535 149.993C216.274 150.261 216.107 150.607 216.06 150.978C216.014 151.436 216.083 151.898 216.26 152.324C216.492 153.089 217.148 153.779 217.685 153.275C218.069 153.841 217.647 154.787 217.637 155.425C217.637 155.934 217.637 156.937 218.112 157.27C218.587 157.603 219.238 157.346 219.262 158.136C219.286 158.925 218.568 159.42 217.837 159.51C217.112 159.535 216.391 159.409 215.718 159.139C215.041 158.873 214.295 158.836 213.595 159.035C213.217 159.255 212.817 159.435 212.402 159.572C211.98 159.607 211.559 159.5 211.205 159.268Z" fill="#563D22"/>
<g style="mix-blend-mode:multiply" opacity="0.2">
<path d="M320.787 187.257H196.398C195.065 187.257 193.985 188.339 193.985 189.673V240.25C193.985 241.584 195.065 242.666 196.398 242.666H320.787C322.12 242.666 323.201 241.584 323.201 240.25V189.673C323.201 188.339 322.12 187.257 320.787 187.257Z" fill="#020202"/>
</g>
<path d="M322.659 185.288H198.27C196.937 185.288 195.857 186.37 195.857 187.704V238.281C195.857 239.615 196.937 240.697 198.27 240.697H322.659C323.992 240.697 325.072 239.615 325.072 238.281V187.704C325.072 186.37 323.992 185.288 322.659 185.288Z" fill="white"/>
<path d="M289.23 229.743L286.219 230.224L288.437 232.321L287.962 235.337L290.641 233.881L293.359 235.26L292.803 232.259L294.955 230.095L291.929 229.701L290.542 226.985L289.23 229.743Z" fill="#FFBC47"/>
<path d="M278.561 229.743L275.554 230.224L277.768 232.321L277.293 235.337L279.972 233.881L282.689 235.26L282.133 232.259L284.285 230.095L281.259 229.701L279.872 226.985L278.561 229.743Z" fill="#FFBC47"/>
<path d="M267.892 229.743L264.885 230.224L267.098 232.321L266.628 235.337L269.303 233.881L272.025 235.26L271.464 232.259L273.616 230.095L270.59 229.701L269.203 226.985L267.892 229.743Z" fill="#FFBC47"/>
<path d="M256.434 232.321L255.954 235.337L258.533 233.938L258.633 233.881L261.35 235.26L260.799 232.259L262.947 230.1L259.925 229.705L258.533 226.985L257.222 229.743L254.211 230.229L256.434 232.321Z" fill="#FFBC47"/>
<path d="M246.558 229.743L243.546 230.224L245.76 232.321L245.289 235.337L247.964 233.881L250.686 235.26L250.125 232.259L252.277 230.095L249.256 229.701L247.864 226.985L246.558 229.743Z" fill="#FFBC47"/>
<g opacity="0.5">
<path opacity="0.5" d="M243.546 199.109H301.881" stroke="#3F3F3F" stroke-width="8" stroke-miterlimit="10"/>
</g>
<g opacity="0.5">
<path opacity="0.5" d="M243.546 206.329H313.04" stroke="#3F3F3F" stroke-miterlimit="10"/>
</g>
<g opacity="0.5">
<path opacity="0.5" d="M243.546 212.483H313.04" stroke="#3F3F3F" stroke-miterlimit="10"/>
</g>
<g opacity="0.5">
<path opacity="0.5" d="M243.546 218.633H313.04" stroke="#3F3F3F" stroke-miterlimit="10"/>
</g>
<path d="M230.37 220.065C236.264 214.164 236.264 204.597 230.37 198.696C224.476 192.795 214.92 192.795 209.026 198.696C203.133 204.597 203.133 214.164 209.026 220.065C214.92 225.965 224.476 225.965 230.37 220.065Z" fill="#D67F91"/>
<path d="M225.851 209.777C225.347 209.972 225.556 211.68 225.466 212.246C225.376 212.812 224.967 214.942 223.841 215.266C222.715 215.589 222.022 215.684 222.012 215.865C222.012 215.951 222.041 216.341 222.069 216.74C222.098 217.14 222.141 217.611 222.141 217.611L221.138 218.871L220.027 218.952L217.309 218.162C217.309 218.162 217.181 215.332 217.067 214.9C217.001 214.624 215.979 212.717 215.238 210.847C214.825 209.93 214.564 208.952 214.464 207.951C214.464 205.977 214.53 203.913 215.747 202.895C216.963 201.877 224.668 198.23 224.877 204.265C224.877 204.265 225.803 207.723 226.212 208.317C226.302 208.431 226.364 208.564 226.395 208.706C226.426 208.848 226.424 208.995 226.389 209.136C226.354 209.277 226.287 209.408 226.194 209.519C226.101 209.63 225.983 209.719 225.851 209.777Z" fill="#FFCCBC"/>
<path d="M222.069 216.74C222.107 217.178 222.141 217.61 222.141 217.61L221.856 219.037L220.027 218.971L217.309 218.181C217.309 218.181 217.181 215.351 217.067 214.919C217.001 214.643 215.979 212.735 215.238 210.866L215.338 209.701C215.338 209.701 217.561 209.449 217.647 209.459C217.957 209.907 218.222 210.385 218.44 210.885C218.44 210.961 217.998 212.279 217.998 212.279C217.998 212.279 217.922 214.1 217.998 215.499C218.017 215.859 218.148 216.204 218.373 216.486C218.598 216.767 218.905 216.971 219.252 217.068C219.671 217.19 220.104 217.259 220.54 217.273C221.096 217.277 221.636 217.089 222.069 216.74Z" fill="#FFCCBC"/>
<path d="M217.813 209.078C217.813 209.078 216.887 212.954 219.053 215.033C221.219 217.111 224.981 215.984 225.513 215.508C226.045 215.033 227.817 211.808 226.178 210.315C224.54 208.821 222.378 210.457 222.378 210.457C222.378 210.457 221.086 211.556 220.663 211.49C220.24 211.423 219.309 210.034 219.623 207.556C219.632 207.491 219.662 207.43 219.71 207.383C219.757 207.337 219.818 207.307 219.884 207.299C220.388 207.233 221.556 206.824 221.485 204.351C221.484 204.302 221.492 204.253 221.511 204.208C221.529 204.162 221.556 204.121 221.591 204.087C221.626 204.053 221.667 204.026 221.713 204.008C221.758 203.991 221.807 203.982 221.856 203.984C222.683 203.995 223.51 204.054 224.33 204.16C224.492 204.191 224.651 204.234 224.806 204.289C224.841 204.303 224.873 204.326 224.899 204.355C224.924 204.383 224.943 204.418 224.953 204.455C225.019 204.693 225.176 205.24 225.209 205.373L225.632 206.757C225.744 206.684 225.838 206.584 225.904 206.468C225.971 206.351 226.01 206.221 226.017 206.087C225.952 205.549 225.922 205.007 225.927 204.465C226.012 204.246 226.639 204.089 226.744 203.58C226.981 202.439 227.437 197.968 223.779 200.08C223.373 200.373 222.931 200.613 222.464 200.793C221.951 200.898 221.49 200.422 220.445 200.317C218.982 200.156 212.478 200.603 213.257 207.1C214.036 213.597 217.124 215.08 217.124 215.08C217.124 215.08 217.039 209.744 217.813 209.078Z" fill="#563D22"/>
<path d="M217.813 209.078C217.813 209.078 217.713 207.965 216.863 208.127C215.723 208.331 215.233 211.318 217.623 211.361C217.586 210.595 217.65 209.828 217.813 209.078Z" fill="#FFCCBC"/>
<path d="M217.381 218.105C217.381 218.105 220.734 219.38 222.226 217.63C226.345 218.21 227.76 218.172 230.192 221.083C228.145 224.731 217.186 226.414 216.787 226.281C216.388 226.148 211.063 223.308 210.906 223.18C210.749 223.052 211.937 217.896 217.381 218.105Z" fill="#053C5E"/>
<path d="M214.383 217.734C214.383 217.734 218.293 219.513 220.426 226.985" stroke="#FFBC47" stroke-width="3" stroke-miterlimit="10"/>
<path d="M222.91 217.378C222.91 217.378 226.82 219.156 228.953 226.628" stroke="#FFBC47" stroke-width="3" stroke-miterlimit="10"/>
<g style="mix-blend-mode:multiply" opacity="0.2">
<path d="M320.787 308.219H196.398C195.065 308.219 193.985 309.301 193.985 310.635V361.211C193.985 362.546 195.065 363.628 196.398 363.628H320.787C322.12 363.628 323.201 362.546 323.201 361.211V310.635C323.201 309.301 322.12 308.219 320.787 308.219Z" fill="#020202"/>
</g>
<path d="M322.659 306.25H198.27C196.937 306.25 195.857 307.332 195.857 308.666V359.242C195.857 360.577 196.937 361.659 198.27 361.659H322.659C323.992 361.659 325.072 360.577 325.072 359.242V308.666C325.072 307.332 323.992 306.25 322.659 306.25Z" fill="white"/>
<path d="M289.23 350.705L286.219 351.19L288.437 353.288L287.962 356.303L290.641 354.843L293.359 356.222L292.803 353.221L294.955 351.062L291.929 350.667L290.542 347.947L289.23 350.705Z" fill="#FFBC47"/>
<path d="M278.561 350.705L275.554 351.19L277.768 353.288L277.293 356.303L279.972 354.843L282.689 356.222L282.133 353.221L284.285 351.062L281.259 350.667L279.872 347.947L278.561 350.705Z" fill="#FFBC47"/>
<path d="M267.892 350.705L264.885 351.19L267.098 353.288L266.628 356.303L269.303 354.843L272.025 356.222L271.464 353.221L273.616 351.062L270.59 350.667L269.203 347.947L267.892 350.705Z" fill="#FFBC47"/>
<path d="M256.434 353.283L255.954 356.298L258.533 354.9L258.633 354.848L261.35 356.227L260.799 353.221L262.947 351.062L259.925 350.667L258.533 347.947L257.222 350.705L254.211 351.19L256.434 353.283Z" fill="#FFBC47"/>
<path d="M246.558 350.705L243.546 351.19L245.76 353.288L245.289 356.303L247.964 354.843L250.686 356.222L250.125 353.221L252.277 351.062L249.256 350.667L247.864 347.947L246.558 350.705Z" fill="#FFBC47"/>
<g opacity="0.5">
<path opacity="0.5" d="M243.546 320.076H301.881" stroke="#3F3F3F" stroke-width="8" stroke-miterlimit="10"/>
</g>
<g opacity="0.5">
<path opacity="0.5" d="M243.546 327.296H313.04" stroke="#3F3F3F" stroke-miterlimit="10"/>
</g>
<g opacity="0.5">
<path opacity="0.5" d="M243.546 333.445H313.04" stroke="#3F3F3F" stroke-miterlimit="10"/>
</g>
<g opacity="0.5">
<path opacity="0.5" d="M243.546 339.6H313.04" stroke="#3F3F3F" stroke-miterlimit="10"/>
</g>
<path d="M230.369 341.026C236.263 335.125 236.263 325.557 230.369 319.657C224.475 313.756 214.92 313.756 209.026 319.657C203.132 325.557 203.132 335.125 209.026 341.026C214.92 346.926 224.475 346.926 230.369 341.026Z" fill="#D67F91"/>
<path d="M225.851 330.739C225.347 330.939 225.556 332.642 225.466 333.207C225.376 333.773 224.967 335.904 223.841 336.228C222.715 336.551 222.022 336.646 222.012 336.827C222.012 336.917 222.041 337.302 222.069 337.702C222.098 338.101 222.141 338.572 222.141 338.572L221.138 339.833L220.027 339.914L217.309 339.11C217.309 339.11 217.181 336.28 217.067 335.842C217.001 335.566 215.979 333.659 215.238 331.795C214.826 330.877 214.564 329.899 214.464 328.898C214.464 326.92 214.53 324.856 215.747 323.843C216.963 322.83 224.668 319.172 224.877 325.208C224.877 325.208 225.803 328.665 226.212 329.26C226.305 329.374 226.371 329.508 226.404 329.653C226.437 329.797 226.436 329.946 226.401 330.09C226.366 330.233 226.298 330.367 226.202 330.48C226.107 330.592 225.986 330.681 225.851 330.739Z" fill="#563D22"/>
<path d="M222.069 337.683C222.107 338.121 222.141 338.553 222.141 338.553L221.856 339.98L220.027 339.909L217.309 339.11C217.309 339.11 217.181 336.28 217.067 335.842C217.001 335.566 215.979 333.659 215.238 331.795L215.338 330.63C215.338 330.63 217.561 330.373 217.647 330.387C217.957 330.836 218.222 331.314 218.44 331.814C218.44 331.89 217.998 333.207 217.998 333.207C217.998 333.207 217.922 335.029 217.998 336.432C218.017 336.792 218.148 337.136 218.373 337.417C218.598 337.698 218.906 337.901 219.252 337.997C219.67 338.123 220.103 338.192 220.54 338.201C221.094 338.21 221.634 338.027 222.069 337.683Z" fill="#563D22"/>
<path d="M217.813 330.04C217.813 330.04 216.887 333.921 219.053 335.999C221.219 338.078 224.981 336.951 225.513 336.475C226.045 335.999 227.817 332.775 226.178 331.286C224.54 329.797 222.378 331.424 222.378 331.424C222.378 331.424 221.086 332.527 220.663 332.456C220.24 332.385 219.309 331.001 219.623 328.523C219.633 328.458 219.664 328.398 219.711 328.351C219.758 328.305 219.819 328.275 219.884 328.266C220.388 328.199 221.556 327.79 221.485 325.317C221.484 325.268 221.492 325.22 221.511 325.174C221.529 325.129 221.556 325.088 221.591 325.053C221.626 325.019 221.667 324.992 221.713 324.975C221.758 324.957 221.807 324.949 221.856 324.951C222.683 324.96 223.51 325.021 224.33 325.132C224.492 325.162 224.651 325.205 224.806 325.26C224.841 325.273 224.873 325.295 224.899 325.323C224.924 325.351 224.943 325.385 224.953 325.422C225.019 325.664 225.176 326.211 225.209 326.34L225.632 327.724C225.744 327.65 225.838 327.551 225.904 327.434C225.971 327.318 226.01 327.187 226.017 327.053C225.952 326.515 225.922 325.973 225.927 325.431C226.012 325.213 226.639 325.056 226.744 324.551C226.981 323.405 227.437 318.935 223.779 321.046C223.375 321.342 222.932 321.582 222.464 321.76C221.951 321.864 221.49 321.393 220.445 321.284C218.982 321.127 212.478 321.574 213.257 328.066C214.036 334.558 217.124 336.052 217.124 336.052C217.124 336.052 217.039 330.701 217.813 330.04Z" fill="#2B2723"/>
<path d="M217.813 330.04C217.813 330.04 217.713 328.932 216.863 329.089C215.723 329.298 215.233 332.28 217.623 332.328C217.586 331.56 217.65 330.791 217.813 330.04Z" fill="#FFCCBC"/>
<path d="M217.381 339.067C217.381 339.067 220.734 340.342 222.226 338.591C226.345 339.167 227.76 339.134 230.192 342.044C228.145 345.687 217.186 347.371 216.787 347.238C216.388 347.105 211.063 344.265 210.906 344.137C210.749 344.009 211.937 338.858 217.381 339.067Z" fill="#053C5E"/>
<g style="mix-blend-mode:multiply" opacity="0.2">
<path d="M320.787 247.379H196.398C195.065 247.379 193.985 248.461 193.985 249.795V300.371C193.985 301.706 195.065 302.787 196.398 302.787H320.787C322.12 302.787 323.201 301.706 323.201 300.371V249.795C323.201 248.461 322.12 247.379 320.787 247.379Z" fill="#020202"/>
</g>
<path d="M322.659 245.41H198.27C196.937 245.41 195.857 246.492 195.857 247.826V298.402C195.857 299.737 196.937 300.818 198.27 300.818H322.659C323.992 300.818 325.072 299.737 325.072 298.402V247.826C325.072 246.492 323.992 245.41 322.659 245.41Z" fill="white"/>
<path opacity="0.3" d="M289.23 289.87L286.219 290.35L288.437 292.448L287.962 295.463L290.641 294.003L293.359 295.387L292.803 292.386L294.955 290.222L291.929 289.827L290.542 287.111L289.23 289.87Z" fill="#FFBC47"/>
<path d="M278.561 289.87L275.554 290.35L277.768 292.448L277.293 295.463L279.972 294.003L282.689 295.387L282.133 292.386L284.285 290.222L281.259 289.827L279.872 287.111L278.561 289.87Z" fill="#FFBC47"/>
<path d="M267.892 289.87L264.885 290.35L267.098 292.448L266.628 295.463L269.303 294.003L272.025 295.387L271.464 292.386L273.616 290.222L270.59 289.827L269.203 287.111L267.892 289.87Z" fill="#FFBC47"/>
<path d="M256.434 292.448L255.954 295.463L258.533 294.065L258.633 294.008L261.35 295.387L260.799 292.381L262.947 290.227L259.925 289.832L258.533 287.111L257.222 289.865L254.211 290.355L256.434 292.448Z" fill="#FFBC47"/>
<path d="M246.558 289.87L243.546 290.35L245.76 292.448L245.289 295.463L247.964 294.003L250.686 295.387L250.125 292.386L252.277 290.222L249.256 289.827L247.864 287.111L246.558 289.87Z" fill="#FFBC47"/>
<g opacity="0.5">
<path opacity="0.5" d="M243.546 259.236H301.881" stroke="#3F3F3F" stroke-width="8" stroke-miterlimit="10"/>
</g>
<g opacity="0.5">
<path opacity="0.5" d="M243.546 266.456H313.04" stroke="#3F3F3F" stroke-miterlimit="10"/>
</g>
<g opacity="0.5">
<path opacity="0.5" d="M243.546 272.61H313.04" stroke="#3F3F3F" stroke-miterlimit="10"/>
</g>
<g opacity="0.5">
<path opacity="0.5" d="M243.546 278.76H313.04" stroke="#3F3F3F" stroke-miterlimit="10"/>
</g>
<path d="M230.368 280.189C236.261 274.288 236.261 264.721 230.368 258.82C224.474 252.919 214.918 252.919 209.024 258.82C203.13 264.721 203.13 274.288 209.024 280.189C214.918 286.09 224.474 286.09 230.368 280.189Z" fill="#D67F91"/>
<path d="M225.851 269.904C225.347 270.099 225.556 271.806 225.466 272.368C225.376 272.929 224.967 275.069 223.841 275.393C222.715 275.716 222.022 275.806 222.012 275.992C222.012 276.077 222.041 276.467 222.069 276.867C222.098 277.266 222.141 277.737 222.141 277.737L221.138 278.998L220.027 279.079L217.309 278.289C217.309 278.289 217.181 275.435 217.067 275.022C217.001 274.75 215.979 272.843 215.238 270.974C214.825 270.057 214.564 269.079 214.464 268.078C214.464 266.104 214.53 264.04 215.747 263.022C216.963 262.004 224.668 258.356 224.877 264.387C224.877 264.387 225.803 267.849 226.212 268.444C226.302 268.558 226.364 268.691 226.395 268.833C226.426 268.975 226.424 269.122 226.389 269.263C226.354 269.403 226.287 269.535 226.194 269.646C226.101 269.757 225.983 269.845 225.851 269.904Z" fill="#FFCCBC"/>
<path d="M222.069 276.867C222.107 277.304 222.141 277.737 222.141 277.737L221.856 279.164L220.027 279.097L217.309 278.308C217.309 278.308 217.181 275.454 217.067 275.04C217.001 274.769 215.979 272.862 215.238 270.993L215.338 269.828C215.338 269.828 217.561 269.576 217.647 269.585C217.957 270.034 218.222 270.512 218.44 271.012C218.44 271.088 217.998 272.406 217.998 272.406C217.998 272.406 217.922 274.227 217.998 275.625C218.017 275.986 218.148 276.331 218.373 276.612C218.598 276.894 218.905 277.098 219.252 277.195C219.671 277.317 220.104 277.385 220.54 277.399C221.096 277.404 221.636 277.216 222.069 276.867Z" fill="#FFCCBC"/>
<path d="M217.813 269.195C217.813 269.195 216.887 273.072 219.053 275.15C221.219 277.228 224.981 276.101 225.513 275.626C226.045 275.15 227.817 271.925 226.178 270.432C224.54 268.938 222.378 270.57 222.378 270.57C222.378 270.57 221.086 271.673 220.663 271.607C220.24 271.54 219.309 270.147 219.623 267.673C219.632 267.608 219.662 267.547 219.71 267.5C219.757 267.454 219.818 267.424 219.884 267.417C220.388 267.35 221.556 266.941 221.485 264.468C221.484 264.419 221.492 264.37 221.511 264.324C221.529 264.279 221.556 264.237 221.591 264.203C221.625 264.168 221.667 264.141 221.712 264.122C221.758 264.104 221.807 264.095 221.856 264.097C222.683 264.111 223.509 264.171 224.33 264.277C224.492 264.308 224.651 264.351 224.806 264.406C224.841 264.42 224.873 264.443 224.899 264.472C224.924 264.501 224.943 264.535 224.953 264.572C225.019 264.81 225.176 265.357 225.209 265.486L225.632 266.874C225.744 266.801 225.838 266.702 225.904 266.585C225.971 266.468 226.01 266.338 226.017 266.204C225.952 265.666 225.922 265.124 225.927 264.582C226.012 264.363 226.639 264.206 226.744 263.697C226.981 262.551 227.437 258.085 223.779 260.197C223.373 260.49 222.931 260.73 222.464 260.91C221.951 261.015 221.49 260.539 220.445 260.435C218.982 260.278 212.478 260.725 213.257 267.222C214.036 273.718 217.124 275.202 217.124 275.202C217.124 275.202 217.039 269.866 217.813 269.195Z" fill="#563D22"/>
<path d="M217.813 269.195C217.813 269.195 217.713 268.082 216.863 268.244C215.723 268.449 215.233 271.435 217.623 271.478C217.586 270.712 217.65 269.945 217.813 269.195Z" fill="#FFCCBC"/>
<path d="M217.381 278.232C217.381 278.232 220.734 279.511 222.226 277.756C226.345 278.336 227.76 278.298 230.192 281.209C228.145 284.857 217.186 286.541 216.787 286.407C216.388 286.274 211.063 283.435 210.906 283.306C210.749 283.178 211.937 278.022 217.381 278.232Z" fill="#053C5E"/>
<g style="mix-blend-mode:multiply">
<path d="M516.941 239.665C516.941 239.665 486.178 166.012 454.279 158.335C422.38 150.659 365.37 212.079 369.493 242.043C373.617 272.006 402.865 290.284 440.346 284.681C477.826 279.079 523.905 265.785 516.941 239.665Z" fill="#ACCAEF"/>
</g>
<path d="M325.044 386.124C328.973 385.718 332.643 383.97 335.436 381.173C338.229 378.376 339.974 374.701 340.378 370.766C340.439 370.183 340.47 369.598 340.468 369.011V108.306C340.467 104.771 339.378 101.323 337.35 98.4298C335.322 95.5366 332.453 93.3388 329.134 92.1352H329.096C328.754 92.0115 328.402 91.9021 328.046 91.7975L327.685 91.6928L327.296 91.5977L326.901 91.5074L326.526 91.4313L326.098 91.3552L325.733 91.3028L325.258 91.241L324.916 91.203L324.384 91.1649H324.103C323.828 91.1649 323.552 91.1649 323.272 91.1649H195.876C195.581 91.1649 195.287 91.1649 194.992 91.1649C194.411 91.1946 193.833 91.2533 193.258 91.3409C192.978 91.3837 192.693 91.436 192.413 91.4931C188.841 92.23 185.596 94.0845 183.147 96.7885C180.697 99.4926 179.169 102.906 178.784 106.537C178.727 107.117 178.698 107.702 178.698 108.296V369.011C178.699 372.546 179.787 375.994 181.814 378.887C183.841 381.78 186.709 383.978 190.028 385.182C190.061 385.182 192.132 385.796 192.265 385.824C192.398 385.853 195.591 386.205 195.876 386.205H323.286C323.88 386.195 324.464 386.195 325.044 386.124ZM187.016 353.516V114.551H332.141V353.516H187.016Z" fill="#282828"/>
<path d="M289.197 103.64H230.207C229.349 103.64 228.653 104.336 228.653 105.195C228.653 106.054 229.349 106.751 230.207 106.751H289.197C290.055 106.751 290.751 106.054 290.751 105.195C290.751 104.336 290.055 103.64 289.197 103.64Z" fill="#515151"/>
<path d="M320.417 279.183C320.417 279.183 306.893 284.724 307.567 288.572C308.242 292.419 311.367 298.593 324.863 295.706L338.445 291.425C338.445 291.425 330.844 281.437 330.91 280.962C330.977 280.486 320.417 279.183 320.417 279.183Z" fill="#F7A491"/>
<path d="M315.443 341.312C315.07 341.693 314.778 342.145 314.585 342.642C314.391 343.139 314.3 343.67 314.316 344.203C314.332 344.736 314.456 345.26 314.68 345.744C314.904 346.228 315.223 346.662 315.619 347.019C325.471 356.056 364.657 391.893 368.068 394.737C371.973 397.995 381.369 405.338 404.228 403.869C432.569 402.047 446.782 422.679 446.782 422.679L505.835 393.034C505.835 393.034 482.695 373.392 449.908 313.845C449.908 313.845 423.42 264.168 405.326 271.787C405.326 271.787 390.205 263.407 379.868 269.224C379.868 269.224 354.952 263.288 343.01 267.045L303.653 242.133C301.781 240.927 299.518 240.486 297.331 240.9C295.144 241.314 293.199 242.552 291.895 244.359C290.986 245.555 290.585 247.063 290.779 248.554C291.648 254.37 303.325 266.08 320.293 279.326C337.262 292.571 382.961 337.146 377.854 364.717C366.512 360.343 355.822 354.433 346.083 347.152C332.749 337.126 320.474 336.204 315.443 341.312Z" fill="#FFCCBC"/>
<path d="M343.119 267.007C347.947 269.087 352.638 271.47 357.166 274.141C359.446 275.454 361.669 276.867 363.874 278.303C366.078 279.739 368.22 281.276 370.334 282.85C371.393 283.639 372.42 284.467 373.455 285.28C374.491 286.094 375.507 286.945 376.491 287.825C378.472 289.565 380.414 291.359 382.22 293.29L382.904 294.003C383.132 294.245 383.345 294.479 383.569 294.74C384.006 295.216 384.462 295.691 384.88 296.229L386.134 297.76C386.547 298.279 386.937 298.811 387.336 299.339C387.735 299.867 388.101 300.419 388.466 300.966L389.017 301.789C389.207 302.06 389.364 302.35 389.54 302.631L390.048 303.477C390.219 303.758 390.395 304.034 390.523 304.333L391.426 306.088L391.345 306.131C390.054 303.854 388.587 301.681 386.956 299.634C385.33 297.586 383.586 295.636 381.73 293.794C380.814 292.842 379.83 291.967 378.88 291.068C377.93 290.17 376.937 289.313 375.93 288.476C374.923 287.639 373.916 286.802 372.899 285.975C371.883 285.147 370.842 284.358 369.788 283.597C365.607 280.439 361.237 277.528 356.791 274.769C354.574 273.393 352.316 272.065 350.017 270.784C347.732 269.504 345.428 268.258 343.081 267.098L343.119 267.007Z" fill="#EAA0A0"/>
<path d="M379.654 269.195C383.257 269.864 386.728 271.11 389.934 272.886C391.552 273.755 393.112 274.729 394.604 275.801C396.101 276.879 397.529 278.05 398.879 279.307C401.566 281.824 403.917 284.678 405.877 287.796C406.352 288.586 406.827 289.356 407.259 290.174C407.473 290.578 407.691 290.978 407.896 291.387L408.485 292.624L408.77 293.247C408.865 293.456 408.945 293.67 409.031 293.884L409.544 295.149C409.881 295.996 410.157 296.866 410.442 297.727L410.356 297.76C408.992 294.409 407.29 291.206 405.278 288.2C404.267 286.702 403.171 285.264 401.996 283.891C401.426 283.192 400.794 282.541 400.186 281.875C399.578 281.209 398.927 280.581 398.257 279.972C395.622 277.48 392.708 275.3 389.573 273.476C388.012 272.566 386.399 271.75 384.742 271.031C383.088 270.302 381.379 269.706 379.631 269.247L379.654 269.195Z" fill="#EAA0A0"/>
<path d="M405.026 271.573C407.37 272.468 409.569 273.703 411.553 275.24L412.309 275.806C412.556 275.996 412.784 276.21 413.031 276.41C413.506 276.819 413.981 277.214 414.456 277.647C414.689 277.861 414.931 278.084 415.14 278.298C415.349 278.512 415.615 278.731 415.805 278.964L417.097 280.334C417.311 280.567 417.506 280.81 417.705 281.057L418.299 281.785L418.883 282.512C419.083 282.76 419.258 283.016 419.439 283.273L420.522 284.814C420.864 285.337 421.182 285.88 421.505 286.417C422.18 287.468 422.698 288.619 423.263 289.746L423.463 290.17L423.638 290.602C423.757 290.893 423.876 291.183 423.99 291.473L424.322 292.348L424.641 293.223L424.56 293.266L423.71 291.615L423.287 290.793L423.073 290.384L422.84 289.984L421.89 288.391C421.729 288.129 421.581 287.853 421.415 287.601L420.897 286.831C420.555 286.317 420.213 285.803 419.867 285.295L418.755 283.815C418.565 283.573 418.389 283.34 418.19 283.083L417.596 282.37L417.002 281.661C416.807 281.428 416.613 281.185 416.399 280.967L415.149 279.602C414.727 279.126 414.28 278.726 413.843 278.289C413.406 277.851 412.945 277.447 412.494 277.028C412.261 276.824 412.019 276.61 411.8 276.41L411.093 275.82C409.208 274.227 407.16 272.839 404.984 271.678L405.026 271.573Z" fill="#EAA0A0"/>
<path d="M259.512 376.764C264.221 376.764 268.039 372.942 268.039 368.227C268.039 363.512 264.221 359.689 259.512 359.689C254.803 359.689 250.985 363.512 250.985 368.227C250.985 372.942 254.803 376.764 259.512 376.764Z" fill="#515151"/>
<path d="M179.192 284.063V320.518C179.192 320.518 150.372 363.461 150.129 355.975C149.887 348.489 142.894 313.132 145.792 309.565C148.69 305.998 171.34 276.539 171.34 276.539L179.192 284.063Z" fill="#F7A491"/>
<path d="M223.043 262.627C201.077 263.578 200.213 300.324 187.035 314.773C180.484 321.955 174.366 322.468 169.696 320.956C162.571 318.654 159.183 310.492 162.257 303.677C166.969 293.18 179.111 284.177 179.111 284.177V257.938L142.058 290.797C137.277 295.037 134.052 300.759 132.9 307.049C123.76 357.183 140.847 443.577 140.847 443.577C140.847 443.577 173.701 456.642 209.875 443.577L200.807 402.199C220.958 381.011 218.44 332.08 219.447 311.9C220.217 296.5 224.801 276.106 226.929 267.312C227.066 266.737 227.068 266.138 226.934 265.563C226.8 264.987 226.533 264.451 226.156 263.996C225.779 263.542 225.302 263.181 224.761 262.944C224.221 262.706 223.633 262.598 223.043 262.627Z" fill="#FFCCBC"/>
</svg>
