<svg width="84" height="77" viewBox="0 0 84 77" fill="none" xmlns="http://www.w3.org/2000/svg">
<g clip-path="url(#clip0)">
<path d="M74.5721 25.0151H52.2631V9.51178C52.2631 4.31169 48.0551 0.0805664 42.8834 0.0805664H9.46005C4.28835 0.0805664 0.0803223 4.31169 0.0803223 9.51178V30.5221C0.0803223 32.3792 0.626402 34.2041 1.67038 35.7383C4.97898 42.1334 20.221 51.5969 20.3977 51.6938C20.7189 51.8876 21.0884 52.0007 21.4738 52.0007C22.6142 52.0168 23.5297 51.0963 23.5457 49.9497C23.5457 49.6752 23.4975 49.4006 23.3851 49.1422C22.2769 46.1385 21.4256 43.0378 20.8153 39.8887H31.8333V55.4082C31.8333 60.5921 35.9931 64.7909 41.1488 64.8232H63.1847C62.5905 67.9562 61.7232 71.0569 60.6149 74.0445C60.1813 75.0942 60.6792 76.3054 61.7231 76.7414C61.9801 76.8545 62.2532 76.9029 62.5262 76.9029C62.9117 76.9029 63.2811 76.7899 63.6023 76.5961C63.7629 76.4992 79.021 67.0357 82.3297 60.6405C83.3736 59.0902 83.9197 57.2653 83.9197 55.4082V34.4463C83.9197 29.2463 79.7438 25.0313 74.5721 25.0151ZM27.5289 35.7544H18.3258C17.7155 35.7706 17.1534 36.029 16.7518 36.4812C16.3664 36.9333 16.1897 37.547 16.2861 38.1445C16.2861 38.3383 16.784 41.3421 17.6673 44.9111C13.0417 41.6651 6.95451 36.9656 5.26809 33.8327C5.2199 33.7035 5.1396 33.5743 5.05929 33.4451C4.4329 32.573 4.11168 31.5233 4.12774 30.4575V9.51178C4.12774 6.58875 6.5048 4.23094 9.39581 4.23094C9.41187 4.23094 9.42793 4.23094 9.44399 4.23094H42.8834C45.7744 4.23094 48.1193 6.6049 48.1354 9.51178V25.0151H41.1488C38.4505 25.0151 35.8807 26.194 34.0979 28.245C32.6363 28.1965 31.1908 27.8897 29.8417 27.3245C32.01 24.5791 33.343 21.2523 33.6643 17.7479H34.7725C35.9128 17.7479 36.8444 16.8113 36.8444 15.6647C36.8444 14.5181 35.9128 13.5814 34.7725 13.5814H28.2356V9.88321C28.2356 8.73661 27.304 7.79995 26.1637 7.79995C25.0233 7.79995 24.0918 8.73661 24.0918 9.88321V13.5814H17.6673C16.527 13.5814 15.5954 14.5181 15.5954 15.6647C15.5954 16.8113 16.527 17.7479 17.6673 17.7479H29.4884C29.1993 20.3964 28.1392 22.8996 26.4528 24.9505C25.2482 23.594 24.3167 22.0275 23.6903 20.3318C23.2727 19.266 22.0841 18.733 21.0241 19.1368C19.9641 19.5567 19.434 20.7517 19.8356 21.8176C20.5905 23.8362 21.6826 25.7096 23.0639 27.3568C21.3775 28.0351 19.5625 28.3742 17.7316 28.3419C16.5912 28.3419 15.6597 29.2786 15.6597 30.4252C15.6597 31.5718 16.5912 32.5084 17.7316 32.5084C20.7993 32.573 23.8027 31.7817 26.4528 30.2152C28.1553 31.2649 30.0505 31.9432 32.026 32.2177C31.8493 32.9445 31.753 33.6873 31.753 34.4302V35.819L27.5289 35.7544ZM79.8884 55.4243C79.9044 56.4902 79.5671 57.5399 78.9568 58.4119C78.8765 58.525 78.8122 58.6542 78.748 58.7834C77.1258 61.884 71.0226 66.6158 66.3488 69.8618C67.2643 66.2928 67.73 63.289 67.73 63.0952C67.8264 62.4977 67.6497 61.884 67.2643 61.4319C66.8788 60.9635 66.3167 60.689 65.7063 60.689H41.1488C38.2578 60.689 35.9128 58.3312 35.8968 55.4243V34.4463C35.8968 31.5395 38.2578 29.1817 41.1488 29.1655H74.5721C77.4631 29.1655 79.808 31.5395 79.8241 34.4463L79.8884 55.4243ZM65.3209 47.7211L59.8119 33.865C59.7797 33.7842 59.7476 33.7196 59.6994 33.6389L59.6191 33.4935C59.587 33.4289 59.5388 33.3643 59.4746 33.3159L59.3622 33.1705L59.2176 33.0413L59.057 32.9606C59.0088 32.9283 58.9606 32.896 58.9124 32.8799L58.7036 32.7668C58.6555 32.7668 58.6073 32.7668 58.5591 32.7668L58.3503 32.7022H58.1415H57.9488H57.7239H57.5472L57.3063 32.7668C57.2581 32.7668 57.21 32.7668 57.1618 32.7668L56.953 32.8799L56.7442 32.9606C56.696 32.9929 56.6318 33.0413 56.5996 33.0898L56.4551 33.219L56.3266 33.3643C56.2784 33.4289 56.2302 33.4774 56.182 33.542V33.6873L56.0536 33.9134L50.5446 47.7695L47.782 54.6976C47.3323 55.7473 47.7981 56.9747 48.8581 57.4268C48.8903 57.443 48.9224 57.4591 48.9384 57.4591C49.1794 57.5722 49.4524 57.6206 49.7094 57.6045C50.5446 57.6045 51.2994 57.0877 51.6207 56.2964L53.8532 50.6764H62.1247L64.3572 56.2964C64.6784 57.0877 65.4333 57.5883 66.2845 57.6045C66.5415 57.6045 66.7985 57.556 67.0394 57.4591C68.0994 57.0554 68.6455 55.8442 68.2279 54.7783C68.2119 54.746 68.2119 54.7137 68.1958 54.6976L65.3209 47.7211ZM55.4432 46.4453L57.9167 40.2601L60.374 46.4453H55.4432Z" fill="#99042F" stroke="white" stroke-miterlimit="10"/>
</g>
<defs>
<clipPath id="clip0">
<rect width="84" height="77" fill="white"/>
</clipPath>
</defs>
</svg>
